<?xml version="1.0" encoding="utf-8"?>
<!-- Generator: Adobe Illustrator 26.2.1, SVG Export Plug-In . SVG Version: 6.00 Build 0)  -->
<svg version="1.1" id="Layer_1" xmlns="http://www.w3.org/2000/svg" xmlns:xlink="http://www.w3.org/1999/xlink" x="0px" y="0px"
	 viewBox="0 0 146 146" style="enable-background:new 0 0 146 146;" xml:space="preserve">
<style type="text/css">
	.st0{fill:#FFFFFF;}
</style>
<g>
	<path d="M17.9,123.5c-1.2,0-2.2,0.5-2.9,1.4s-1,2.3-1,3.9c0,3.5,1.3,5.2,3.9,5.2c1.1,0,2.4-0.3,4-0.8v2.8c-1.3,0.5-2.7,0.8-4.3,0.8
		c-2.3,0-4-0.7-5.2-2.1s-1.8-3.4-1.8-6c0-1.6,0.3-3.1,0.9-4.3s1.4-2.2,2.6-2.8s2.4-1,3.9-1c1.5,0,3.1,0.4,4.6,1.1l-1.1,2.7
		c-0.6-0.3-1.2-0.5-1.8-0.7C19.1,123.6,18.5,123.5,17.9,123.5z"/>
	<path d="M39.5,128.8c0,2.6-0.6,4.6-1.9,6s-3.1,2.1-5.5,2.1s-4.2-0.7-5.5-2.1s-1.9-3.4-1.9-6c0-2.6,0.6-4.6,1.9-6s3.1-2.1,5.6-2.1
		s4.3,0.7,5.5,2.1C38.9,124.2,39.5,126.2,39.5,128.8z M28.1,128.8c0,1.8,0.3,3.1,1,4c0.7,0.9,1.7,1.3,3,1.3c2.7,0,4-1.8,4-5.3
		c0-3.5-1.3-5.3-4-5.3c-1.3,0-2.3,0.4-3,1.3C28.4,125.7,28.1,127,28.1,128.8z"/>
	<path d="M49.5,136.7l-3.8-12.3h-0.1c0.1,2.5,0.2,4.2,0.2,5v7.3h-3V121h4.5l3.7,12h0.1l3.9-12h4.5v15.7h-3.1v-7.4c0-0.4,0-0.8,0-1.2
		c0-0.5,0.1-1.7,0.2-3.7h-0.1l-4,12.3L49.5,136.7L49.5,136.7z"/>
	<path d="M74.4,125.9c0,1.7-0.5,3-1.6,3.9c-1.1,0.9-2.6,1.3-4.5,1.3h-1.4v5.6h-3.3V121h5c1.9,0,3.3,0.4,4.3,1.2
		S74.4,124.2,74.4,125.9z M66.9,128.4H68c1,0,1.8-0.2,2.3-0.6c0.5-0.4,0.8-1,0.8-1.8s-0.2-1.4-0.6-1.7s-1.1-0.6-2-0.6h-1.5
		L66.9,128.4L66.9,128.4z"/>
	<path d="M90.1,121v10.2c0,1.2-0.3,2.2-0.8,3.1c-0.5,0.9-1.3,1.5-2.2,2s-2.1,0.7-3.5,0.7c-2,0-3.6-0.5-4.7-1.6s-1.7-2.4-1.7-4.2V121
		h3.3v9.6c0,1.2,0.2,2.1,0.7,2.7c0.5,0.6,1.3,0.9,2.4,0.9c1.1,0,1.9-0.3,2.4-0.9s0.7-1.5,0.7-2.7V121C86.8,121,90.1,121,90.1,121z"
		/>
	<path d="M100,136.7h-3.3v-12.9h-4.3V121h11.9v2.8H100L100,136.7L100,136.7z"/>
	<path d="M115.8,136.7h-9V121h9v2.7h-5.7v3.4h5.3v2.7h-5.3v4.1h5.7V136.7z"/>
	<path d="M122.4,130.6v6H119V121h4.6c2.1,0,3.7,0.4,4.7,1.2c1,0.8,1.5,2,1.5,3.5c0,0.9-0.2,1.8-0.8,2.5s-1.2,1.3-2.2,1.7
		c2.4,3.5,3.9,5.8,4.6,6.8h-3.7l-3.8-6H122.4z M122.4,127.9h1.1c1.1,0,1.8-0.2,2.3-0.5c0.5-0.3,0.8-0.9,0.8-1.7
		c0-0.7-0.3-1.3-0.8-1.6c-0.5-0.3-1.3-0.5-2.4-0.5h-1L122.4,127.9L122.4,127.9z"/>
</g>
<g>
	<path class="st0" d="M34.1,77C33,77,32,76.1,32,74.9V32.1c0-1.2,1-2.1,2.1-2.1h76.8c1.2,0,2.1,1,2.1,2.1v42.8
		c0,1.2-0.9,2.1-2.1,2.1L34.1,77L34.1,77z"/>
	<path d="M110.9,31.5c0.3,0,0.6,0.3,0.6,0.6v42.8c0,0.3-0.3,0.6-0.6,0.6H34.1c-0.3,0-0.6-0.3-0.6-0.6V32.1c0-0.3,0.3-0.6,0.6-0.6
		L110.9,31.5 M110.9,28.5H34.1c-2,0-3.6,1.6-3.6,3.6v42.8c0,2,1.6,3.6,3.6,3.6h76.8c2,0,3.6-1.6,3.6-3.6V32.1
		C114.5,30.1,112.9,28.5,110.9,28.5L110.9,28.5z"/>
</g>
<g>
	<path class="st0" d="M25.2,100c-1.9,0-3.5-1-4.4-2.6s-0.9-3.6,0.1-5.2l9.8-15.8c0.9-1.5,2.6-2.4,4.3-2.4h74.6
		c1.7,0,3.3,0.9,4.3,2.3l10.3,15.8c1,1.6,1.1,3.5,0.2,5.2c-0.9,1.7-2.6,2.7-4.5,2.7L25.2,100L25.2,100z"/>
	<path d="M109.6,75.5c1.2,0,2.3,0.6,3,1.6l10.3,15.8c1.6,2.4-0.2,5.6-3,5.6H25.2c-2.8,0-4.5-3.1-3.1-5.5l9.8-15.8
		c0.6-1.1,1.8-1.7,3.1-1.7L109.6,75.5 M109.6,72.5H35c-2.3,0-4.4,1.2-5.6,3.1l-9.8,15.8c-1.2,2-1.3,4.6-0.1,6.7s3.4,3.4,5.8,3.4
		h94.6c2.4,0,4.6-1.3,5.8-3.4s1.1-4.7-0.3-6.7l-10.3-15.8C113.8,73.6,111.8,72.5,109.6,72.5L109.6,72.5z"/>
</g>
<path d="M101.2,68H43.8c-2.4,0-4.3-1.9-4.3-4.3V39.3c0-2.4,1.9-4.3,4.3-4.3h57.4c2.4,0,4.3,1.9,4.3,4.3v24.5
	C105.5,66.1,103.6,68,101.2,68z"/>
<rect x="34" y="78" width="77" height="3"/>
<rect x="30" y="83" width="84" height="3"/>
<rect x="27" y="88" width="90" height="3"/>
</svg>
