<?xml version="1.0" encoding="utf-8"?>
<!-- Generator: Adobe Illustrator 26.2.1, SVG Export Plug-In . SVG Version: 6.00 Build 0)  -->
<svg version="1.1" id="Layer_1" xmlns="http://www.w3.org/2000/svg" xmlns:xlink="http://www.w3.org/1999/xlink" x="0px" y="0px"
	 viewBox="0 0 146 146" style="enable-background:new 0 0 146 146;" xml:space="preserve">
<style type="text/css">
	.st0{fill:#FFFFFF;}
</style>
<g>
	<path d="M17.94,123.51c-1.25,0-2.22,0.47-2.91,1.41S14,127.18,14,128.86c0,3.5,1.31,5.25,3.94,5.25c1.1,0,2.44-0.28,4.01-0.83v2.79
		c-1.29,0.54-2.73,0.81-4.32,0.81c-2.29,0-4.03-0.69-5.24-2.08c-1.21-1.39-1.82-3.38-1.82-5.97c0-1.63,0.3-3.06,0.89-4.29
		c0.59-1.23,1.45-2.17,2.56-2.83s2.42-0.98,3.92-0.98c1.53,0,3.06,0.37,4.6,1.11l-1.07,2.71c-0.59-0.28-1.18-0.52-1.77-0.73
		C19.1,123.62,18.51,123.51,17.94,123.51z"/>
	<path d="M39.54,128.8c0,2.6-0.64,4.6-1.93,5.99s-3.14,2.09-5.54,2.09s-4.25-0.7-5.54-2.09s-1.93-3.4-1.93-6.02
		c0-2.61,0.65-4.61,1.94-5.99s3.15-2.07,5.56-2.07c2.41,0,4.26,0.7,5.54,2.08C38.9,124.19,39.54,126.19,39.54,128.8z M28.08,128.8
		c0,1.75,0.33,3.08,1,3.96c0.67,0.89,1.66,1.33,2.99,1.33c2.66,0,3.99-1.76,3.99-5.3c0-3.54-1.32-5.31-3.96-5.31
		c-1.33,0-2.32,0.45-3,1.34C28.42,125.72,28.08,127.04,28.08,128.8z"/>
	<path d="M49.45,136.67l-3.78-12.32h-0.1c0.14,2.51,0.2,4.18,0.2,5.02v7.3H42.8v-15.71h4.53l3.72,12.01h0.06l3.94-12.01h4.53v15.71
		h-3.1v-7.43c0-0.35,0-0.75,0.02-1.21c0.01-0.46,0.06-1.68,0.15-3.65h-0.1l-4.05,12.3H49.45z"/>
	<path d="M74.39,125.86c0,1.69-0.53,2.98-1.58,3.88c-1.06,0.9-2.56,1.34-4.51,1.34h-1.43v5.59h-3.33v-15.71h5.02
		c1.9,0,3.35,0.41,4.34,1.23S74.39,124.24,74.39,125.86z M66.87,128.36h1.1c1.02,0,1.79-0.2,2.3-0.61c0.51-0.4,0.76-0.99,0.76-1.77
		c0-0.78-0.21-1.36-0.64-1.73c-0.43-0.37-1.09-0.56-2-0.56h-1.51V128.36z"/>
	<path d="M90.14,120.96v10.16c0,1.16-0.26,2.18-0.78,3.05c-0.52,0.87-1.27,1.54-2.25,2.01c-0.98,0.47-2.14,0.7-3.48,0.7
		c-2.02,0-3.59-0.52-4.71-1.55s-1.68-2.45-1.68-4.25v-10.12h3.32v9.61c0,1.21,0.24,2.1,0.73,2.66c0.49,0.57,1.29,0.85,2.42,0.85
		c1.09,0,1.88-0.28,2.37-0.85s0.74-1.46,0.74-2.68v-9.59H90.14z"/>
	<path d="M100.04,136.67h-3.33v-12.93h-4.26v-2.77h11.86v2.77h-4.26V136.67z"/>
	<path d="M115.77,136.67h-9.04v-15.71h9.04v2.73h-5.71v3.45h5.32v2.73h-5.32v4.05h5.71V136.67z"/>
	<path d="M122.38,130.64v6.03h-3.33v-15.71h4.58c2.13,0,3.71,0.39,4.74,1.17c1.02,0.78,1.54,1.96,1.54,3.54
		c0,0.92-0.25,1.75-0.76,2.47c-0.51,0.72-1.23,1.28-2.16,1.69c2.36,3.53,3.9,5.81,4.62,6.84h-3.7l-3.75-6.03H122.38z M122.38,127.94
		h1.07c1.05,0,1.83-0.17,2.33-0.53c0.5-0.35,0.75-0.9,0.75-1.65c0-0.74-0.26-1.27-0.77-1.59c-0.51-0.31-1.3-0.47-2.38-0.47h-1.01
		V127.94z"/>
</g>
<g>
	<path class="st0" d="M32.12,77C30.95,77,30,76.05,30,74.88V32.12c0-1.17,0.95-2.12,2.12-2.12h76.77c1.17,0,2.12,0.95,2.12,2.12
		v42.77c0,1.17-0.95,2.12-2.12,2.12H32.12z"/>
	<path d="M108.88,31.5c0.34,0,0.62,0.28,0.62,0.62v42.77c0,0.34-0.28,0.62-0.62,0.62H32.12c-0.34,0-0.62-0.28-0.62-0.62V32.12
		c0-0.34,0.28-0.62,0.62-0.62H108.88 M108.88,28.5H32.12c-1.99,0-3.62,1.62-3.62,3.62v42.77c0,1.99,1.62,3.62,3.62,3.62h76.77
		c1.99,0,3.62-1.62,3.62-3.62V32.12C112.5,30.12,110.88,28.5,108.88,28.5L108.88,28.5z"/>
</g>
<g>
	<path class="st0" d="M23.24,100c-1.87,0-3.53-0.98-4.44-2.61s-0.87-3.56,0.11-5.15l9.76-15.82C29.61,74.9,31.22,74,33,74h74.55
		c1.73,0,3.32,0.86,4.26,2.31l10.32,15.82c1.04,1.59,1.12,3.54,0.21,5.21c-0.9,1.67-2.58,2.67-4.48,2.67H23.24z"/>
	<path d="M107.56,75.5c1.21,0,2.34,0.61,3.01,1.63l10.32,15.82c1.56,2.39-0.16,5.55-3.01,5.55H23.24c-2.81,0-4.53-3.08-3.06-5.48
		l9.76-15.82c0.65-1.06,1.81-1.71,3.06-1.71H107.56 M107.56,72.5H33c-2.3,0-4.4,1.17-5.61,3.13l-9.76,15.82
		c-1.25,2.03-1.31,4.59-0.15,6.67s3.37,3.38,5.75,3.38h94.63c2.42,0,4.64-1.32,5.79-3.45c1.15-2.13,1.05-4.71-0.27-6.74
		l-10.32-15.82C111.85,73.62,109.79,72.5,107.56,72.5L107.56,72.5z"/>
</g>
<path d="M99.22,68H41.78c-2.36,0-4.28-1.91-4.28-4.28V39.28c0-2.36,1.91-4.28,4.28-4.28h57.45c2.36,0,4.28,1.91,4.28,4.28v24.45
	C103.5,66.09,101.59,68,99.22,68z"/>
<rect x="32" y="78" width="77" height="3"/>
<rect x="28" y="83" width="84" height="3"/>
<rect x="25" y="88" width="90" height="3"/>
</svg>
