<?xml version="1.0" encoding="utf-8"?>
<!-- Generator: Adobe Illustrator 26.2.1, SVG Export Plug-In . SVG Version: 6.00 Build 0)  -->
<svg version="1.1" id="Layer_1" xmlns="http://www.w3.org/2000/svg" xmlns:xlink="http://www.w3.org/1999/xlink" x="0px" y="0px"
	 viewBox="0 0 146 146" style="enable-background:new 0 0 146 146;" xml:space="preserve">
<style type="text/css">
	.st0{fill:#FFFFFF;stroke:#000000;stroke-width:5;stroke-linecap:round;stroke-linejoin:round;stroke-miterlimit:10;}
	.st1{fill:none;stroke:#000000;stroke-width:5;stroke-linecap:round;stroke-linejoin:round;stroke-miterlimit:10;}
	.st2{fill:#FFFFFF;}
</style>
<rect x="25.6" y="11.4" class="st0" width="93" height="96"/>
<g>
	<path d="M17.3,129.2c0,2.5-0.7,4.4-2.1,5.7s-3.4,2-6.1,2H4.9v-15h4.7c2.4,0,4.3,0.7,5.7,1.9S17.3,126.9,17.3,129.2z M14,129.3
		c0-3.2-1.4-4.8-4.3-4.8H8v9.8h1.4C12.5,134.2,14,132.6,14,129.3z"/>
	<path d="M20.4,136.9v-15h3.2v15H20.4z"/>
	<path d="M36.2,132.7c0,1.4-0.5,2.4-1.5,3.2s-2.3,1.2-4.1,1.2c-1.6,0-3-0.3-4.2-0.9v-3c1,0.5,1.9,0.8,2.6,1c0.7,0.2,1.3,0.3,1.9,0.3
		c0.7,0,1.2-0.1,1.6-0.4s0.6-0.7,0.6-1.2c0-0.3-0.1-0.6-0.2-0.8c-0.2-0.2-0.4-0.5-0.7-0.7c-0.3-0.2-1-0.6-1.9-1
		c-0.9-0.4-1.6-0.8-2.1-1.2c-0.5-0.4-0.8-0.9-1.1-1.4c-0.3-0.5-0.4-1.1-0.4-1.8c0-1.3,0.5-2.4,1.4-3.1s2.1-1.1,3.7-1.1
		c0.8,0,1.5,0.1,2.2,0.3c0.7,0.2,1.5,0.4,2.2,0.8l-1,2.5c-0.8-0.3-1.5-0.6-2-0.7c-0.5-0.1-1-0.2-1.5-0.2c-0.6,0-1.1,0.1-1.4,0.4
		s-0.5,0.7-0.5,1.1c0,0.3,0.1,0.5,0.2,0.7c0.1,0.2,0.3,0.4,0.6,0.6c0.3,0.2,1,0.5,2,1.1c1.4,0.7,2.4,1.3,2.9,2
		C35.9,130.9,36.2,131.7,36.2,132.7z"/>
	<path d="M51.2,136.9H48v-6.5h-5.9v6.5h-3.2v-15h3.2v5.9H48v-5.9h3.2V136.9z"/>
	<path d="M69.6,136.9H66l-2-7.9c-0.1-0.3-0.2-0.9-0.4-1.7c-0.2-0.9-0.3-1.5-0.3-1.8c0,0.4-0.1,1-0.3,1.8c-0.2,0.8-0.3,1.4-0.4,1.8
		l-2,7.8h-3.6l-3.8-15h3.1l1.9,8.2c0.3,1.5,0.6,2.8,0.7,3.9c0-0.4,0.1-1,0.3-1.8c0.2-0.8,0.3-1.5,0.4-1.9l2.2-8.4h3l2.2,8.4
		c0.1,0.4,0.2,0.9,0.4,1.7s0.2,1.4,0.3,2c0.1-0.5,0.2-1.2,0.3-2c0.2-0.8,0.3-1.4,0.4-1.9l1.9-8.2h3.1L69.6,136.9z"/>
	<path d="M84.5,136.9l-1.1-3.6h-5.5l-1.1,3.6h-3.4l5.3-15.1h3.9l5.3,15.1H84.5z M82.6,130.6c-1-3.2-1.6-5.1-1.7-5.5
		c-0.1-0.4-0.2-0.8-0.3-1c-0.2,0.9-0.9,3-1.9,6.5H82.6z"/>
	<path d="M98.6,132.7c0,1.4-0.5,2.4-1.5,3.2s-2.3,1.2-4.1,1.2c-1.6,0-3-0.3-4.2-0.9v-3c1,0.5,1.9,0.8,2.6,1c0.7,0.2,1.3,0.3,1.9,0.3
		c0.7,0,1.2-0.1,1.6-0.4s0.6-0.7,0.6-1.2c0-0.3-0.1-0.6-0.2-0.8c-0.2-0.2-0.4-0.5-0.7-0.7c-0.3-0.2-1-0.6-1.9-1
		c-0.9-0.4-1.6-0.8-2.1-1.2c-0.5-0.4-0.8-0.9-1.1-1.4c-0.3-0.5-0.4-1.1-0.4-1.8c0-1.3,0.4-2.4,1.3-3.1s2.1-1.1,3.7-1.1
		c0.8,0,1.5,0.1,2.2,0.3c0.7,0.2,1.4,0.4,2.2,0.8l-1,2.5c-0.8-0.3-1.5-0.6-2-0.7c-0.5-0.1-1-0.2-1.5-0.2c-0.6,0-1.1,0.1-1.4,0.4
		s-0.5,0.7-0.5,1.1c0,0.3,0.1,0.5,0.2,0.7c0.1,0.2,0.3,0.4,0.6,0.6c0.3,0.2,1,0.5,2,1.1c1.4,0.7,2.4,1.3,2.9,2
		C98.4,130.9,98.6,131.7,98.6,132.7z"/>
	<path d="M113.6,136.9h-3.2v-6.5h-5.9v6.5h-3.2v-15h3.2v5.9h5.9v-5.9h3.2V136.9z"/>
	<path d="M126,136.9h-8.6v-15h8.6v2.6h-5.5v3.3h5.1v2.6h-5.1v3.9h5.5V136.9z"/>
	<path d="M132.4,131.1v5.8h-3.2v-15h4.4c2,0,3.5,0.4,4.5,1.1s1.5,1.9,1.5,3.4c0,0.9-0.2,1.7-0.7,2.4c-0.5,0.7-1.2,1.2-2.1,1.6
		c2.3,3.4,3.7,5.6,4.4,6.5h-3.5l-3.6-5.8H132.4z M132.4,128.5h1c1,0,1.8-0.2,2.2-0.5c0.5-0.3,0.7-0.9,0.7-1.6c0-0.7-0.2-1.2-0.7-1.5
		c-0.5-0.3-1.2-0.4-2.3-0.4h-1L132.4,128.5L132.4,128.5z"/>
</g>
<line class="st1" x1="27" y1="35.3" x2="117.1" y2="35.3"/>
<g>
	<path d="M45.8,53.4h13c0,0,1,16.7-6.6,16.7S45.8,53.4,45.8,53.4z"/>
	<g>
		<polygon points="53.3,70 51.3,70 51.3,81.9 51.3,84.4 53.3,84.4 		"/>
		<polygon points="48.3,84.9 56.3,84.9 53.3,81.9 51.3,81.9 		"/>
	</g>
</g>
<g>
	<g>
		<path d="M79.2,88.4c-10.6,0-19.3-8.6-19.3-19.3s8.6-19.3,19.3-19.3c10.6,0,19.3,8.6,19.3,19.3S89.8,88.4,79.2,88.4z"/>
		<path class="st2" d="M79.2,50.4c10.3,0,18.8,8.4,18.8,18.8s-8.4,18.8-18.8,18.8s-18.8-8.4-18.8-18.8S68.8,50.4,79.2,50.4
			 M79.2,49.4c-10.9,0-19.8,8.8-19.8,19.8s8.9,19.8,19.8,19.8s19.8-8.8,19.8-19.8S90.1,49.4,79.2,49.4L79.2,49.4z"/>
	</g>
	<g>
		<path d="M79.1,82.8c-7,0-13-5.5-13.6-12.5c-0.3-3.6,0.8-7.2,3.2-10s5.7-4.5,9.3-4.8c0.4,0,0.8,0,1.2,0c7,0,13,5.5,13.6,12.5
			c0.6,7.5-5,14.1-12.5,14.8C79.9,82.8,79.5,82.8,79.1,82.8z"/>
		<path class="st2" d="M79.2,54v3c6.3,0,11.6,4.9,12.1,11.2c0.3,3.2-0.7,6.4-2.8,8.9s-5,4-8.3,4.3c-0.3,0-0.7,0-1,0
			c-6.3,0-11.6-4.9-12.1-11.2c-0.3-3.2,0.7-6.4,2.8-8.9c2.1-2.5,5-4,8.3-4.3c0.3,0,0.7,0,1,0V54 M79.2,54c-0.4,0-0.9,0-1.3,0
			c-8.3,0.7-14.5,8-13.8,16.4c0.7,7.9,7.3,13.9,15.1,13.9c0.4,0,0.9,0,1.3-0.1c8.3-0.7,14.6-8,13.8-16.4C93.6,60,87,54,79.2,54
			L79.2,54z"/>
	</g>
</g>
<rect x="46.7" y="21.8" width="22" height="4"/>
<rect x="74.7" y="21.8" width="22" height="4"/>
</svg>
