<?xml version="1.0" encoding="utf-8"?>
<!-- Generator: Adobe Illustrator 26.2.1, SVG Export Plug-In . SVG Version: 6.00 Build 0)  -->
<svg version="1.1" id="Layer_1" xmlns="http://www.w3.org/2000/svg" xmlns:xlink="http://www.w3.org/1999/xlink" x="0px" y="0px"
	 viewBox="0 0 136.29 128.12" style="enable-background:new 0 0 136.29 128.12;" xml:space="preserve">
<style type="text/css">
	.st0{fill:#FFFFFF;stroke:#000000;stroke-width:5;stroke-linecap:round;stroke-linejoin:round;stroke-miterlimit:10;}
	.st1{fill:none;stroke:#000000;stroke-width:5;stroke-linecap:round;stroke-linejoin:round;stroke-miterlimit:10;}
	.st2{fill:#FFFFFF;}
</style>
<rect x="20.7" y="2.5" class="st0" width="93" height="96"/>
<g>
	<path d="M12.44,120.27c0,2.47-0.7,4.36-2.11,5.67c-1.41,1.31-3.43,1.97-6.09,1.97H0v-14.99h4.71c2.45,0,4.35,0.65,5.7,1.94
		S12.44,117.95,12.44,120.27z M9.14,120.35c0-3.22-1.42-4.83-4.27-4.83H3.18v9.76h1.36C7.6,125.29,9.14,123.64,9.14,120.35z"/>
	<path d="M15.54,127.91v-14.99h3.18v14.99H15.54z"/>
	<path d="M31.35,123.75c0,1.35-0.49,2.42-1.46,3.2c-0.97,0.78-2.33,1.17-4.07,1.17c-1.6,0-3.01-0.3-4.25-0.9v-2.95
		c1.01,0.45,1.87,0.77,2.57,0.95s1.34,0.28,1.92,0.28c0.7,0,1.23-0.13,1.6-0.4s0.56-0.66,0.56-1.19c0-0.29-0.08-0.56-0.25-0.79
		c-0.16-0.23-0.4-0.45-0.72-0.66c-0.32-0.21-0.97-0.55-1.94-1.01c-0.92-0.43-1.6-0.84-2.06-1.24s-0.82-0.86-1.1-1.38
		s-0.41-1.14-0.41-1.85c0-1.33,0.45-2.37,1.35-3.13s2.14-1.14,3.73-1.14c0.78,0,1.52,0.09,2.23,0.28c0.71,0.18,1.45,0.44,2.22,0.78
		l-1.03,2.47c-0.8-0.33-1.46-0.56-1.98-0.69c-0.52-0.13-1.04-0.19-1.54-0.19c-0.6,0-1.06,0.14-1.38,0.42s-0.48,0.65-0.48,1.1
		c0,0.28,0.06,0.52,0.19,0.73c0.13,0.21,0.34,0.41,0.62,0.61c0.28,0.19,0.96,0.54,2.01,1.05c1.4,0.67,2.36,1.34,2.88,2.01
		C31.09,121.94,31.35,122.77,31.35,123.75z"/>
	<path d="M46.35,127.91h-3.17v-6.47h-5.94v6.47h-3.18v-14.99h3.18v5.88h5.94v-5.88h3.17V127.91z"/>
	<path d="M64.73,127.91h-3.62l-2.03-7.88c-0.08-0.28-0.2-0.86-0.38-1.74c-0.18-0.88-0.29-1.47-0.31-1.77
		c-0.04,0.37-0.14,0.96-0.31,1.78c-0.16,0.82-0.29,1.4-0.38,1.75l-2.02,7.85h-3.61l-3.82-14.99h3.13l1.92,8.18
		c0.33,1.51,0.58,2.82,0.73,3.93c0.04-0.39,0.13-0.99,0.28-1.81c0.15-0.82,0.29-1.45,0.42-1.9l2.18-8.4h3l2.18,8.4
		c0.1,0.38,0.22,0.95,0.36,1.72s0.25,1.44,0.33,1.99c0.07-0.53,0.18-1.2,0.33-2c0.15-0.8,0.29-1.44,0.41-1.93l1.91-8.18h3.13
		L64.73,127.91z"/>
	<path d="M79.61,127.91l-1.09-3.57h-5.47l-1.09,3.57h-3.42l5.29-15.05h3.89l5.31,15.05H79.61z M77.77,121.68
		c-1-3.23-1.57-5.06-1.7-5.49c-0.13-0.42-0.22-0.76-0.27-1c-0.23,0.88-0.87,3.04-1.94,6.49H77.77z"/>
	<path d="M93.77,123.75c0,1.35-0.49,2.42-1.46,3.2c-0.97,0.78-2.33,1.17-4.07,1.17c-1.6,0-3.01-0.3-4.25-0.9v-2.95
		c1.01,0.45,1.87,0.77,2.57,0.95s1.34,0.28,1.92,0.28c0.7,0,1.23-0.13,1.6-0.4s0.56-0.66,0.56-1.19c0-0.29-0.08-0.56-0.25-0.79
		c-0.16-0.23-0.4-0.45-0.72-0.66c-0.32-0.21-0.97-0.55-1.94-1.01c-0.92-0.43-1.6-0.84-2.06-1.24s-0.82-0.86-1.1-1.38
		s-0.41-1.14-0.41-1.85c0-1.33,0.45-2.37,1.35-3.13s2.14-1.14,3.73-1.14c0.78,0,1.52,0.09,2.23,0.28c0.71,0.18,1.45,0.44,2.22,0.78
		l-1.03,2.47c-0.8-0.33-1.46-0.56-1.98-0.69c-0.52-0.13-1.04-0.19-1.54-0.19c-0.6,0-1.06,0.14-1.38,0.42s-0.48,0.65-0.48,1.1
		c0,0.28,0.06,0.52,0.19,0.73c0.13,0.21,0.34,0.41,0.62,0.61c0.28,0.19,0.96,0.54,2.01,1.05c1.4,0.67,2.36,1.34,2.88,2.01
		C93.51,121.94,93.77,122.77,93.77,123.75z"/>
	<path d="M108.77,127.91h-3.17v-6.47h-5.94v6.47h-3.18v-14.99h3.18v5.88h5.94v-5.88h3.17V127.91z"/>
	<path d="M121.19,127.91h-8.63v-14.99h8.63v2.6h-5.46v3.29h5.08v2.6h-5.08v3.87h5.46V127.91z"/>
	<path d="M127.5,122.16v5.75h-3.18v-14.99h4.37c2.04,0,3.54,0.37,4.52,1.11c0.98,0.74,1.47,1.87,1.47,3.38
		c0,0.88-0.24,1.67-0.73,2.35c-0.49,0.69-1.17,1.23-2.06,1.62c2.26,3.37,3.73,5.55,4.41,6.53h-3.53l-3.58-5.75H127.5z M127.5,119.57
		h1.03c1,0,1.75-0.17,2.23-0.5s0.72-0.86,0.72-1.58c0-0.71-0.24-1.22-0.73-1.52c-0.49-0.3-1.25-0.45-2.27-0.45h-0.96V119.57z"/>
</g>
<line class="st1" x1="22.14" y1="26.38" x2="112.2" y2="26.38"/>
<g>
	<path d="M40.91,44.46h13.03c0,0,1.02,16.68-6.61,16.68S40.91,44.46,40.91,44.46z"/>
	<g>
		<polygon points="48.42,61.07 46.42,61.07 46.42,72.99 46.42,75.47 48.42,75.47 		"/>
		<polygon points="43.42,76 51.42,76 48.42,73 46.42,73 		"/>
	</g>
</g>
<g>
	<g>
		<path d="M74.3,79.5c-10.62,0-19.27-8.64-19.27-19.27s8.64-19.27,19.27-19.27c10.62,0,19.27,8.64,19.27,19.27S84.93,79.5,74.3,79.5
			z"/>
		<path class="st2" d="M74.3,41.47c10.35,0,18.77,8.42,18.77,18.77S84.65,79,74.3,79s-18.77-8.42-18.77-18.77
			S63.96,41.47,74.3,41.47 M74.3,40.47c-10.92,0-19.77,8.85-19.77,19.77S63.39,80,74.3,80s19.77-8.85,19.77-19.77
			S85.22,40.47,74.3,40.47L74.3,40.47z"/>
	</g>
	<g>
		<path d="M74.29,73.9c-7.04,0-13.01-5.5-13.6-12.52c-0.31-3.64,0.82-7.18,3.18-9.97c2.36-2.79,5.66-4.49,9.3-4.8
			c0.39-0.03,0.78-0.05,1.16-0.05c7.04,0,13.01,5.5,13.6,12.52c0.63,7.51-4.96,14.13-12.48,14.76C75.06,73.89,74.67,73.9,74.29,73.9
			z"/>
		<path class="st2" d="M74.32,45.07v3c6.26,0,11.58,4.9,12.11,11.15c0.27,3.24-0.73,6.39-2.83,8.87c-2.1,2.48-5.04,4-8.27,4.27
			c-0.34,0.03-0.69,0.04-1.04,0.04c-6.26,0-11.58-4.9-12.11-11.15c-0.27-3.24,0.73-6.39,2.83-8.87c2.1-2.48,5.04-4,8.27-4.27
			c0.34-0.03,0.69-0.04,1.04-0.04L74.32,45.07 M74.32,45.07c-0.43,0-0.86,0.02-1.29,0.05c-8.35,0.7-14.55,8.04-13.84,16.38
			c0.67,7.92,7.29,13.9,15.1,13.9c0.43,0,0.86-0.02,1.29-0.05c8.35-0.7,14.55-8.04,13.84-16.38C88.75,51.05,82.12,45.07,74.32,45.07
			L74.32,45.07z"/>
	</g>
</g>
<rect x="41.83" y="12.87" width="22" height="4"/>
<rect x="69.83" y="12.87" width="22" height="4"/>
</svg>
