<?xml version="1.0" encoding="utf-8"?>
<!-- Generator: Adobe Illustrator 26.2.1, SVG Export Plug-In . SVG Version: 6.00 Build 0)  -->
<svg version="1.1" id="Layer_1" xmlns="http://www.w3.org/2000/svg" xmlns:xlink="http://www.w3.org/1999/xlink" x="0px" y="0px"
	 viewBox="0 0 156 78" style="enable-background:new 0 0 156 78;" xml:space="preserve">
<style type="text/css">
	.st0{fill:#FFFFFF;stroke:#000000;stroke-miterlimit:10;}
</style>
<path class="st0" d="M116.96,78.35h-78c-21.54,0-39-17.46-39-39v0c0-21.54,17.46-39,39-39h78c21.54,0,39,17.46,39,39v0
	C155.96,60.89,138.5,78.35,116.96,78.35z"/>
<g>
	<path d="M48.78,56.57H29.46V23.02h19.32v5.83H36.57v7.37h11.36v5.83H36.57v8.65h12.21V56.57z"/>
	<path d="M83.62,39.48c0,5.52-1.57,9.75-4.72,12.69c-3.14,2.94-7.68,4.41-13.62,4.41h-9.5V23.02h10.53c5.48,0,9.73,1.45,12.76,4.34
		S83.62,34.29,83.62,39.48z M76.23,39.66c0-7.21-3.18-10.81-9.55-10.81H62.9V50.7h3.05C72.8,50.7,76.23,47.02,76.23,39.66z"/>
	<path d="M90.57,56.57V23.02h7.11v33.55H90.57z"/>
	<path d="M119.07,56.57h-7.11V28.94h-9.11v-5.92h25.34v5.92h-9.11V56.57z"/>
</g>
</svg>
