<?xml version="1.0" encoding="utf-8"?>
<!-- Generator: Adobe Illustrator 26.2.1, SVG Export Plug-In . SVG Version: 6.00 Build 0)  -->
<svg version="1.1" id="Layer_1" xmlns="http://www.w3.org/2000/svg" xmlns:xlink="http://www.w3.org/1999/xlink" x="0px" y="0px"
	 viewBox="0 0 146 146" style="enable-background:new 0 0 146 146;" xml:space="preserve">
<g>
	<path d="M34.99,132.53h-3.47v-7.09h-6.5v7.09h-3.48v-16.42h3.48v6.43h6.5v-6.43h3.47V132.53z"/>
	<path d="M48.59,132.53h-9.46v-16.42h9.46v2.85h-5.97v3.61h5.56v2.85h-5.56v4.23h5.97V132.53z"/>
	<path d="M62.06,132.53l-1.19-3.91h-5.99l-1.19,3.91h-3.75l5.79-16.49H60l5.82,16.49H62.06z M60.04,125.7
		c-1.1-3.54-1.72-5.54-1.86-6.01c-0.14-0.46-0.24-0.83-0.3-1.1c-0.25,0.96-0.95,3.33-2.12,7.11H60.04z"/>
	<path d="M74.22,132.53h-3.48v-13.52h-4.46v-2.9h12.4v2.9h-4.46V132.53z"/>
	<path d="M81.2,132.53v-16.42h3.48v16.42H81.2z"/>
	<path d="M103.38,132.53h-4.42l-7.14-12.42h-0.1c0.14,2.19,0.21,3.76,0.21,4.69v7.73h-3.11v-16.42h4.39l7.13,12.3h0.08
		c-0.11-2.13-0.17-3.64-0.17-4.53v-7.77h3.13V132.53z"/>
	<path d="M113.75,123.31h6.51v8.51c-1.06,0.34-2.05,0.59-2.98,0.72c-0.93,0.14-1.88,0.21-2.86,0.21c-2.48,0-4.37-0.73-5.68-2.18
		c-1.31-1.46-1.96-3.55-1.96-6.27c0-2.65,0.76-4.72,2.27-6.2c1.52-1.48,3.62-2.22,6.31-2.22c1.68,0,3.31,0.34,4.87,1.01l-1.16,2.79
		c-1.2-0.6-2.44-0.9-3.74-0.9c-1.5,0-2.71,0.5-3.62,1.52c-0.91,1.01-1.36,2.37-1.36,4.08c0,1.78,0.37,3.14,1.09,4.08
		c0.73,0.94,1.79,1.41,3.18,1.41c0.73,0,1.46-0.08,2.21-0.22v-3.43h-3.11V123.31z"/>
</g>
<polygon points="42.57,32.5 39.7,30.93 39.7,28.84 36.82,28.84 36.82,100.71 33.21,100.71 33.21,102.1 43.31,102.1 43.31,100.71 
	39.7,100.71 39.7,98.62 42.57,97.05 42.57,97.05 45.42,98.62 45.42,89.6 42.57,91.17 42.57,91.17 39.7,89.6 39.7,39.95 42.57,38.38 
	42.57,38.38 45.42,39.95 45.42,30.93 42.57,32.5 "/>
<polygon points="54.5,32.5 51.26,30.93 51.26,28.84 47.98,28.84 47.98,100.71 51.26,100.71 51.26,98.62 54.5,97.05 54.5,97.05 
	57.75,98.62 57.75,89.6 54.5,91.17 54.5,91.17 51.26,89.6 51.26,39.95 54.5,38.38 54.5,38.38 57.75,39.95 57.75,30.93 54.5,32.5 "/>
<polygon points="66.84,32.5 63.59,30.93 63.59,28.84 60.31,28.84 60.31,100.71 63.59,100.71 63.59,98.62 66.84,97.05 66.84,97.05 
	70.09,98.62 70.09,89.6 66.84,91.17 66.84,91.17 63.59,89.6 63.59,39.95 66.84,38.38 66.84,38.38 70.09,39.95 70.09,30.93 
	66.84,32.5 "/>
<polygon points="79.17,32.5 75.92,30.93 75.92,28.84 72.65,28.84 72.65,100.71 75.92,100.71 75.92,98.62 79.17,97.05 79.17,97.05 
	82.42,98.62 82.42,89.6 79.17,91.17 79.17,91.17 75.92,89.6 75.92,39.95 79.17,38.38 79.17,38.38 82.42,39.95 82.42,30.93 
	79.17,32.5 "/>
<polygon points="90.67,32.5 87.81,30.93 87.81,28.84 84.92,28.84 84.92,100.71 81.31,100.71 81.31,102.1 91.41,102.1 91.41,100.71 
	87.81,100.71 87.81,98.62 90.67,97.05 90.67,97.05 93.53,98.62 93.53,89.6 90.67,91.17 90.67,91.17 87.81,89.6 87.81,39.95 
	90.67,38.38 90.67,38.38 93.53,39.95 93.53,30.93 90.67,32.5 "/>
<g>
	<polygon points="30.65,38.38 35.53,39.95 35.53,30.93 30.65,32.5 	"/>
	<polygon points="30.65,97.05 35.53,98.62 35.53,89.6 30.65,91.17 	"/>
</g>
<path d="M101.14,28.84h-5.57v40.3h6.96c0.19,0,0.35,0.16,0.35,0.35c0,0.19-0.16,0.35-0.35,0.35h-6.96v0.7h6.96
	c0.19,0,0.35,0.16,0.35,0.35c0,0.19-0.16,0.35-0.35,0.35h-6.96v0.7h6.96c0.19,0,0.35,0.16,0.35,0.35c0,0.19-0.16,0.35-0.35,0.35
	h-6.96v0.7h6.96c0.19,0,0.35,0.15,0.35,0.35c0,0.19-0.16,0.35-0.35,0.35h-6.96v0.7h6.96c0.19,0,0.35,0.16,0.35,0.35
	c0,0.19-0.16,0.35-0.35,0.35h-6.96v0.7h6.96c0.19,0,0.35,0.16,0.35,0.35c0,0.19-0.16,0.35-0.35,0.35h-6.96v0.7h6.96
	c0.19,0,0.35,0.15,0.35,0.35c0,0.19-0.16,0.35-0.35,0.35h-6.96v0.7h6.96c0.19,0,0.35,0.16,0.35,0.35s-0.16,0.35-0.35,0.35h-6.96
	v0.69h6.96c0.19,0,0.35,0.16,0.35,0.35s-0.16,0.35-0.35,0.35h-6.96v0.7h6.96c0.19,0,0.35,0.16,0.35,0.35c0,0.19-0.16,0.35-0.35,0.35
	h-6.96v18.29h2.25c0.17,0.03,0.35,0.05,0.53,0.05h2.79c1.53,0,2.79-1.25,2.79-2.79v-66.3C103.93,30.09,102.68,28.84,101.14,28.84z"
	/>
</svg>
