<?xml version="1.0" encoding="utf-8"?>
<!-- Generator: Adobe Illustrator 26.2.1, SVG Export Plug-In . SVG Version: 6.00 Build 0)  -->
<svg version="1.1" id="Layer_1" xmlns="http://www.w3.org/2000/svg" xmlns:xlink="http://www.w3.org/1999/xlink" x="0px" y="0px"
	 viewBox="0 0 146 146" style="enable-background:new 0 0 146 146;" xml:space="preserve">
<g>
	<path d="M35,111h-3.5v-7.1H25v7.1h-3.5V94.5H25v6.4h6.5v-6.4H35V111z"/>
	<path d="M48.6,111h-9.5V94.5h9.5v2.8h-6v3.6h5.6v2.8h-5.6v4.2h6V111z"/>
	<path d="M62.1,111l-1.2-3.9h-6l-1.2,3.9h-3.8l5.8-16.5H60l5.8,16.5H62.1z M60,104.1c-1.1-3.5-1.7-5.5-1.9-6
		c-0.1-0.5-0.2-0.8-0.3-1.1c-0.2,1-1,3.3-2.1,7.1H60z"/>
	<path d="M74.2,111h-3.5V97.4h-4.5v-2.9h12.4v2.9h-4.5V111z"/>
	<path d="M81.2,111V94.5h3.5V111H81.2z"/>
	<path d="M103.4,111H99l-7.1-12.4h-0.1c0.1,2.2,0.2,3.8,0.2,4.7v7.7h-3.1V94.5h4.4l7.1,12.3h0.1c-0.1-2.1-0.2-3.6-0.2-4.5v-7.8h3.1
		V111z"/>
	<path d="M113.8,101.7h6.5v8.5c-1.1,0.3-2.1,0.6-3,0.7c-0.9,0.1-1.9,0.2-2.9,0.2c-2.5,0-4.4-0.7-5.7-2.2c-1.3-1.5-2-3.6-2-6.3
		c0-2.7,0.8-4.7,2.3-6.2c1.5-1.5,3.6-2.2,6.3-2.2c1.7,0,3.3,0.3,4.9,1l-1.2,2.8c-1.2-0.6-2.4-0.9-3.7-0.9c-1.5,0-2.7,0.5-3.6,1.5
		c-0.9,1-1.4,2.4-1.4,4.1c0,1.8,0.4,3.1,1.1,4.1c0.7,0.9,1.8,1.4,3.2,1.4c0.7,0,1.5-0.1,2.2-0.2v-3.4h-3.1L113.8,101.7L113.8,101.7z
		"/>
</g>
<polygon points="42.6,20 39.7,18.4 39.7,16.3 36.8,16.3 36.8,88.2 33.2,88.2 33.2,89.6 43.3,89.6 43.3,88.2 39.7,88.2 39.7,86.1 
	42.6,84.6 42.6,84.6 45.4,86.1 45.4,77.1 42.6,78.7 42.6,78.7 39.7,77.1 39.7,27.5 42.6,25.9 42.6,25.9 45.4,27.5 45.4,18.4 "/>
<polygon points="54.5,20 51.3,18.4 51.3,16.3 48,16.3 48,88.2 51.3,88.2 51.3,86.1 54.5,84.6 54.5,84.6 57.8,86.1 57.8,77.1 
	54.5,78.7 54.5,78.7 51.3,77.1 51.3,27.5 54.5,25.9 54.5,25.9 57.8,27.5 57.8,18.4 "/>
<polygon points="66.8,20 63.6,18.4 63.6,16.3 60.3,16.3 60.3,88.2 63.6,88.2 63.6,86.1 66.8,84.6 66.8,84.6 70.1,86.1 70.1,77.1 
	66.8,78.7 66.8,78.7 63.6,77.1 63.6,27.5 66.8,25.9 66.8,25.9 70.1,27.5 70.1,18.4 "/>
<polygon points="79.2,20 75.9,18.4 75.9,16.3 72.7,16.3 72.7,88.2 75.9,88.2 75.9,86.1 79.2,84.6 79.2,84.6 82.4,86.1 82.4,77.1 
	79.2,78.7 79.2,78.7 75.9,77.1 75.9,27.5 79.2,25.9 79.2,25.9 82.4,27.5 82.4,18.4 "/>
<polygon points="90.7,20 87.8,18.4 87.8,16.3 84.9,16.3 84.9,88.2 81.3,88.2 81.3,89.6 91.4,89.6 91.4,88.2 87.8,88.2 87.8,86.1 
	90.7,84.6 90.7,84.6 93.5,86.1 93.5,77.1 90.7,78.7 90.7,78.7 87.8,77.1 87.8,27.5 90.7,25.9 90.7,25.9 93.5,27.5 93.5,18.4 "/>
<g>
	<polygon points="30.6,25.9 35.5,27.5 35.5,18.4 30.6,20 	"/>
	<polygon points="30.6,84.6 35.5,86.1 35.5,77.1 30.6,78.7 	"/>
</g>
<path d="M101.1,16.3h-5.6v40.3h7c0.2,0,0.3,0.2,0.3,0.3c0,0.2-0.2,0.3-0.3,0.3h-7V58h7c0.2,0,0.3,0.2,0.3,0.3c0,0.2-0.2,0.3-0.3,0.3
	h-7v0.7h7c0.2,0,0.3,0.2,0.3,0.3c0,0.2-0.2,0.3-0.3,0.3h-7v0.7h7c0.2,0,0.3,0.2,0.3,0.3c0,0.2-0.2,0.3-0.3,0.3h-7v0.7h7
	c0.2,0,0.3,0.2,0.3,0.3c0,0.2-0.2,0.3-0.3,0.3h-7v0.7h7c0.2,0,0.3,0.2,0.3,0.3c0,0.2-0.2,0.3-0.3,0.3h-7V65h7c0.2,0,0.3,0.2,0.3,0.3
	c0,0.2-0.2,0.3-0.3,0.3h-7v0.7h7c0.2,0,0.3,0.2,0.3,0.3s-0.2,0.3-0.3,0.3h-7v0.7h7c0.2,0,0.3,0.2,0.3,0.3s-0.2,0.3-0.3,0.3h-7v0.7h7
	c0.2,0,0.3,0.2,0.3,0.3c0,0.2-0.2,0.3-0.3,0.3h-7v18.3h2.2c0.2,0,0.3,0.1,0.5,0.1h2.8c1.5,0,2.8-1.2,2.8-2.8V19.2
	C103.9,17.6,102.7,16.3,101.1,16.3z"/>
<g>
	<path d="M68.6,124.7c0,2.6-0.6,4.6-1.9,6s-3.1,2.1-5.5,2.1s-4.3-0.7-5.5-2.1s-1.9-3.4-1.9-6s0.6-4.6,1.9-6c1.3-1.4,3.1-2.1,5.6-2.1
		c2.4,0,4.3,0.7,5.5,2.1S68.6,122.1,68.6,124.7z M57.2,124.7c0,1.8,0.3,3.1,1,4s1.7,1.3,3,1.3c2.7,0,4-1.8,4-5.3
		c0-3.5-1.3-5.3-4-5.3c-1.3,0-2.3,0.4-3,1.3C57.5,121.6,57.2,123,57.2,124.7z"/>
	<path d="M85.8,132.6h-4.2l-6.8-11.9h-0.1c0.1,2.1,0.2,3.6,0.2,4.5v7.4h-3v-15.7h4.2l6.8,11.8H83c-0.1-2-0.2-3.5-0.2-4.3v-7.4h3
		V132.6z"/>
</g>
</svg>
