<?xml version="1.0" encoding="utf-8"?>
<!-- Generator: Adobe Illustrator 26.2.1, SVG Export Plug-In . SVG Version: 6.00 Build 0)  -->
<svg version="1.1" id="Layer_1" xmlns="http://www.w3.org/2000/svg" xmlns:xlink="http://www.w3.org/1999/xlink" x="0px" y="0px"
	 viewBox="0 0 146 146" style="enable-background:new 0 0 146 146;" xml:space="preserve">
<style type="text/css">
	.st0{fill:#BF6F6F;}
</style>
<g>
	<path d="M37.1,113.5h-3.5v-7.1h-6.5v7.1h-3.5V97.1h3.5v6.4h6.5v-6.4h3.5V113.5z"/>
	<path d="M50.7,113.5h-9.5V97.1h9.5v2.8h-6v3.6h5.6v2.8h-5.6v4.2h6V113.5z"/>
	<path d="M64.2,113.5l-1.2-3.9h-6l-1.2,3.9H52L57.8,97h4.3l5.8,16.5H64.2z M62.1,106.6c-1.1-3.5-1.7-5.5-1.9-6
		c-0.1-0.5-0.2-0.8-0.3-1.1c-0.2,1-1,3.3-2.1,7.1H62.1z"/>
	<path d="M76.3,113.5h-3.5V100h-4.5v-2.9h12.4v2.9h-4.5V113.5z"/>
	<path d="M83.3,113.5V97.1h3.5v16.4H83.3z"/>
	<path d="M105.5,113.5h-4.4l-7.1-12.4h-0.1c0.1,2.2,0.2,3.8,0.2,4.7v7.7h-3.1V97.1h4.4l7.1,12.3h0.1c-0.1-2.1-0.2-3.6-0.2-4.5v-7.8
		h3.1V113.5z"/>
	<path d="M115.8,104.3h6.5v8.5c-1.1,0.3-2.1,0.6-3,0.7c-0.9,0.1-1.9,0.2-2.9,0.2c-2.5,0-4.4-0.7-5.7-2.2c-1.3-1.5-2-3.6-2-6.3
		c0-2.7,0.8-4.7,2.3-6.2c1.5-1.5,3.6-2.2,6.3-2.2c1.7,0,3.3,0.3,4.9,1l-1.2,2.8c-1.2-0.6-2.4-0.9-3.7-0.9c-1.5,0-2.7,0.5-3.6,1.5
		c-0.9,1-1.4,2.4-1.4,4.1c0,1.8,0.4,3.1,1.1,4.1c0.7,0.9,1.8,1.4,3.2,1.4c0.7,0,1.5-0.1,2.2-0.2v-3.4h-3.1L115.8,104.3L115.8,104.3z
		"/>
</g>
<polygon points="44.7,22.5 41.8,21 41.8,18.9 38.9,18.9 38.9,90.7 35.3,90.7 35.3,92.1 45.4,92.1 45.4,90.7 41.8,90.7 41.8,88.6 
	44.7,87.1 44.7,87.1 47.5,88.6 47.5,79.6 44.7,81.2 44.7,81.2 41.8,79.6 41.8,30 44.7,28.4 44.7,28.4 47.5,30 47.5,21 "/>
<polygon points="56.6,22.5 53.4,21 53.4,18.9 50.1,18.9 50.1,90.7 53.4,90.7 53.4,88.6 56.6,87.1 56.6,87.1 59.8,88.6 59.8,79.6 
	56.6,81.2 56.6,81.2 53.4,79.6 53.4,30 56.6,28.4 56.6,28.4 59.8,30 59.8,21 "/>
<polygon points="68.9,22.5 65.7,21 65.7,18.9 62.4,18.9 62.4,90.7 65.7,90.7 65.7,88.6 68.9,87.1 68.9,87.1 72.2,88.6 72.2,79.6 
	68.9,81.2 68.9,81.2 65.7,79.6 65.7,30 68.9,28.4 68.9,28.4 72.2,30 72.2,21 "/>
<polygon points="81.3,22.5 78,21 78,18.9 74.8,18.9 74.8,90.7 78,90.7 78,88.6 81.3,87.1 81.3,87.1 84.5,88.6 84.5,79.6 81.3,81.2 
	81.3,81.2 78,79.6 78,30 81.3,28.4 81.3,28.4 84.5,30 84.5,21 "/>
<polygon points="92.8,22.5 89.9,21 89.9,18.9 87,18.9 87,90.7 83.4,90.7 83.4,92.1 93.5,92.1 93.5,90.7 89.9,90.7 89.9,88.6 
	92.8,87.1 92.8,87.1 95.6,88.6 95.6,79.6 92.8,81.2 92.8,81.2 89.9,79.6 89.9,30 92.8,28.4 92.8,28.4 95.6,30 95.6,21 "/>
<g>
	<polygon points="32.7,28.4 37.6,30 37.6,21 32.7,22.5 	"/>
	<polygon points="32.7,87.1 37.6,88.6 37.6,79.6 32.7,81.2 	"/>
</g>
<path d="M103.2,18.9h-5.6v40.3h7c0.2,0,0.3,0.2,0.3,0.3c0,0.2-0.2,0.3-0.3,0.3h-7v0.7h7c0.2,0,0.3,0.2,0.3,0.3
	c0,0.2-0.2,0.3-0.3,0.3h-7V62h7c0.2,0,0.3,0.2,0.3,0.3c0,0.2-0.2,0.3-0.3,0.3h-7v0.7h7c0.2,0,0.3,0.2,0.3,0.3c0,0.2-0.2,0.4-0.3,0.4
	h-7v0.7h7c0.2,0,0.3,0.2,0.3,0.3c0,0.2-0.2,0.3-0.3,0.3h-7v0.7h7c0.2,0,0.3,0.2,0.3,0.3c0,0.2-0.2,0.3-0.3,0.3h-7v0.7h7
	c0.2,0,0.3,0.2,0.3,0.3c0,0.2-0.2,0.3-0.3,0.3h-7V69h7c0.2,0,0.3,0.2,0.3,0.3s-0.2,0.3-0.3,0.3h-7v0.7h7c0.2,0,0.3,0.2,0.3,0.3
	s-0.2,0.3-0.3,0.3h-7v0.7h7c0.2,0,0.3,0.2,0.3,0.3c0,0.2-0.2,0.3-0.3,0.3h-7v18.3h2.2c0.2,0,0.3,0.1,0.5,0.1h2.8
	c1.5,0,2.8-1.2,2.8-2.8V21.7C106,20.1,104.8,18.9,103.2,18.9z"/>
<g>
	<path d="M67.6,127.2c0,2.6-0.6,4.6-1.9,6s-3.1,2.1-5.5,2.1s-4.3-0.7-5.5-2.1s-1.9-3.4-1.9-6s0.6-4.6,1.9-6c1.3-1.4,3.1-2.1,5.6-2.1
		c2.4,0,4.3,0.7,5.5,2.1S67.6,124.6,67.6,127.2z M56.1,127.2c0,1.8,0.3,3.1,1,4s1.7,1.3,3,1.3c2.7,0,4-1.8,4-5.3
		c0-3.5-1.3-5.3-4-5.3c-1.3,0-2.3,0.4-3,1.3C56.5,124.2,56.1,125.5,56.1,127.2z"/>
	<path d="M74.1,135.1h-3.3v-15.7h9v2.7h-5.7v4h5.3v2.7h-5.3V135.1z"/>
	<path d="M86.2,135.1h-3.3v-15.7h9v2.7h-5.7v4h5.3v2.7h-5.3V135.1z"/>
</g>
<rect x="69.3" y="4" transform="matrix(0.5709 -0.821 0.821 0.5709 -14.2376 83.7423)" class="st0" width="7.3" height="102.9"/>
</svg>
