<?xml version="1.0" encoding="utf-8"?>
<!-- Generator: Adobe Illustrator 26.2.1, SVG Export Plug-In . SVG Version: 6.00 Build 0)  -->
<svg version="1.1" id="Layer_1" xmlns="http://www.w3.org/2000/svg" xmlns:xlink="http://www.w3.org/1999/xlink" x="0px" y="0px"
	 viewBox="0 0 146 146" style="enable-background:new 0 0 146 146;" xml:space="preserve">
<style type="text/css">
	.st0{fill:#FFFFFF;stroke:#000000;stroke-width:5;stroke-miterlimit:10;}
</style>
<g>
	<path d="M58.11,131.17h-3.32v-6.78h-6.22v6.78h-3.33v-15.71h3.33v6.16h6.22v-6.16h3.32V131.17z"/>
	<path d="M76.33,123.3c0,2.6-0.64,4.6-1.93,5.99s-3.14,2.09-5.54,2.09s-4.25-0.7-5.54-2.09c-1.29-1.4-1.93-3.4-1.93-6.02
		c0-2.61,0.65-4.61,1.94-5.99c1.29-1.38,3.15-2.07,5.56-2.07c2.41,0,4.26,0.7,5.54,2.08C75.69,118.69,76.33,120.69,76.33,123.3z
		 M64.87,123.3c0,1.75,0.33,3.08,1,3.96c0.67,0.89,1.66,1.33,2.99,1.33c2.66,0,3.99-1.76,3.99-5.3c0-3.54-1.32-5.31-3.96-5.31
		c-1.33,0-2.32,0.45-3,1.34C65.21,120.22,64.87,121.54,64.87,123.3z"/>
	<path d="M79.59,115.46h4.89c2.23,0,3.84,0.32,4.85,0.95c1.01,0.63,1.51,1.64,1.51,3.02c0,0.94-0.22,1.71-0.66,2.31
		s-1.03,0.96-1.76,1.08v0.11c1,0.22,1.71,0.64,2.15,1.25c0.44,0.61,0.66,1.42,0.66,2.43c0,1.43-0.52,2.55-1.55,3.35
		c-1.04,0.8-2.44,1.2-4.22,1.2h-5.88V115.46z M82.92,121.68h1.93c0.9,0,1.56-0.14,1.96-0.42c0.4-0.28,0.61-0.74,0.61-1.39
		c0-0.6-0.22-1.03-0.66-1.29s-1.14-0.39-2.09-0.39h-1.75V121.68z M82.92,124.33v4.09h2.17c0.92,0,1.59-0.17,2.03-0.53
		c0.44-0.35,0.66-0.89,0.66-1.61c0-1.3-0.93-1.96-2.79-1.96H82.92z"/>
</g>
<path class="st0" d="M42.01,38.16l51.25-0.21c0.57,0,1.13-0.1,1.67-0.3l27.15-9.9c2.56-0.93,5.38,0.39,6.31,2.94l0,0
	c0.98,2.71-0.56,5.68-3.34,6.43l-25.79,6.97c-2.16,0.58-3.65,2.54-3.64,4.78l0.14,25.83c0.02,2.73-2.19,4.95-4.92,4.95H47.36
	c-2.69,0-4.89-2.17-4.92-4.86L42.01,38.16L42.01,38.16z"/>
<path d="M26.46,96.35l6.53-7.83c1.34-1.61,3.32-2.54,5.42-2.54h59.05c2.97,0,5.76,1.38,7.56,3.74l5.06,6.63H26.46z"/>
</svg>
