<?xml version="1.0" encoding="utf-8"?>
<!-- Generator: Adobe Illustrator 26.2.1, SVG Export Plug-In . SVG Version: 6.00 Build 0)  -->
<svg version="1.1" id="Layer_1" xmlns="http://www.w3.org/2000/svg" xmlns:xlink="http://www.w3.org/1999/xlink" x="0px" y="0px"
	 viewBox="0 0 134.92 118.12" style="enable-background:new 0 0 134.92 118.12;" xml:space="preserve">
<style type="text/css">
	.st0{fill:#FFFFFF;stroke:#000000;stroke-width:5;stroke-miterlimit:10;}
	.st1{fill:#FFFFFF;stroke:#000000;stroke-width:6;stroke-miterlimit:10;}
	.st2{fill:none;stroke:#000000;stroke-width:5;stroke-miterlimit:10;}
</style>
<g>
	<path d="M12.28,117.91H9.12v-6.47H3.18v6.47H0v-14.99h3.18v5.88h5.94v-5.88h3.17V117.91z"/>
	<path d="M29.67,110.39c0,2.48-0.62,4.39-1.85,5.72s-2.99,2-5.29,2s-4.06-0.67-5.29-2s-1.85-3.25-1.85-5.74s0.62-4.4,1.85-5.72
		c1.23-1.32,3-1.97,5.31-1.97s4.07,0.66,5.29,1.99C29.06,106,29.67,107.91,29.67,110.39z M18.73,110.39c0,1.67,0.32,2.94,0.95,3.78
		s1.59,1.27,2.85,1.27c2.54,0,3.8-1.68,3.8-5.05c0-3.38-1.26-5.07-3.78-5.07c-1.26,0-2.22,0.42-2.86,1.28
		C19.06,107.46,18.73,108.72,18.73,110.39z"/>
	<path d="M44.98,102.92v9.7c0,1.11-0.25,2.08-0.74,2.91c-0.5,0.83-1.21,1.47-2.15,1.92s-2.04,0.67-3.32,0.67
		c-1.93,0-3.42-0.49-4.49-1.48c-1.07-0.99-1.6-2.34-1.6-4.06v-9.66h3.17v9.18c0,1.16,0.23,2,0.7,2.54s1.23,0.81,2.31,0.81
		c1.04,0,1.79-0.27,2.26-0.82c0.47-0.54,0.7-1.4,0.7-2.56v-9.16H44.98z"/>
	<path d="M57.5,113.75c0,1.35-0.49,2.42-1.46,3.2c-0.97,0.78-2.33,1.17-4.07,1.17c-1.6,0-3.01-0.3-4.25-0.9v-2.95
		c1.01,0.45,1.87,0.77,2.57,0.95s1.34,0.28,1.92,0.28c0.7,0,1.23-0.13,1.6-0.4s0.56-0.66,0.56-1.19c0-0.29-0.08-0.56-0.25-0.79
		c-0.16-0.23-0.4-0.45-0.72-0.66c-0.32-0.21-0.97-0.55-1.94-1.01c-0.92-0.43-1.6-0.84-2.06-1.24s-0.82-0.86-1.1-1.38
		s-0.41-1.14-0.41-1.85c0-1.33,0.45-2.37,1.35-3.13s2.14-1.14,3.73-1.14c0.78,0,1.52,0.09,2.23,0.28c0.71,0.18,1.45,0.44,2.22,0.78
		l-1.03,2.47c-0.8-0.33-1.46-0.56-1.98-0.69c-0.52-0.13-1.04-0.19-1.54-0.19c-0.6,0-1.06,0.14-1.38,0.42s-0.48,0.65-0.48,1.1
		c0,0.28,0.06,0.52,0.19,0.73c0.13,0.21,0.34,0.41,0.62,0.61c0.28,0.19,0.96,0.54,2.01,1.05c1.4,0.67,2.36,1.34,2.88,2.01
		C57.24,111.94,57.5,112.77,57.5,113.75z"/>
	<path d="M68.85,117.91h-8.63v-14.99h8.63v2.6H63.4v3.29h5.08v2.6H63.4v3.87h5.46V117.91z"/>
	<path d="M86.58,117.91h-3.62l-2.03-7.88c-0.08-0.28-0.2-0.86-0.38-1.74c-0.18-0.88-0.29-1.47-0.31-1.77
		c-0.04,0.37-0.14,0.96-0.31,1.78c-0.16,0.82-0.29,1.4-0.38,1.75l-2.02,7.85h-3.61l-3.82-14.99h3.13l1.92,8.18
		c0.33,1.51,0.58,2.82,0.73,3.93c0.04-0.39,0.13-0.99,0.28-1.81c0.15-0.82,0.29-1.45,0.42-1.9l2.18-8.4h3l2.18,8.4
		c0.1,0.38,0.22,0.95,0.36,1.72s0.25,1.44,0.33,1.99c0.07-0.53,0.18-1.2,0.33-2c0.15-0.8,0.29-1.44,0.41-1.93l1.91-8.18h3.13
		L86.58,117.91z"/>
	<path d="M105.89,110.39c0,2.48-0.62,4.39-1.85,5.72s-2.99,2-5.29,2s-4.06-0.67-5.29-2s-1.85-3.25-1.85-5.74s0.62-4.4,1.85-5.72
		c1.23-1.32,3-1.97,5.31-1.97s4.07,0.66,5.29,1.99C105.28,106,105.89,107.91,105.89,110.39z M94.95,110.39
		c0,1.67,0.32,2.94,0.95,3.78s1.59,1.27,2.85,1.27c2.54,0,3.8-1.68,3.8-5.05c0-3.38-1.26-5.07-3.78-5.07
		c-1.26,0-2.22,0.42-2.86,1.28C95.27,107.46,94.95,108.72,94.95,110.39z"/>
	<path d="M112.18,112.16v5.75H109v-14.99h4.37c2.04,0,3.54,0.37,4.52,1.11c0.98,0.74,1.47,1.87,1.47,3.38
		c0,0.88-0.24,1.67-0.73,2.35c-0.49,0.69-1.17,1.23-2.06,1.62c2.26,3.37,3.73,5.55,4.41,6.53h-3.53l-3.58-5.75H112.18z
		 M112.18,109.57h1.03c1,0,1.75-0.17,2.23-0.5s0.72-0.86,0.72-1.58c0-0.71-0.24-1.22-0.73-1.52c-0.49-0.3-1.25-0.45-2.27-0.45h-0.96
		V109.57z"/>
	<path d="M134.92,117.91h-3.61l-3.93-6.32l-1.34,0.96v5.35h-3.18v-14.99h3.18v6.86l1.25-1.76l4.06-5.1h3.53l-5.23,6.63
		L134.92,117.91z"/>
</g>
<path class="st0" d="M53.99,82.16V55.31c0-5.88,5.69-10.15,11.31-8.41c9.47,2.93,21.46,9.18,21.46,22.05v15.87
	c0,4.85-3.93,8.78-8.78,8.78H62.77c-4.85,0-8.78-3.93-8.78-8.78V82.16z"/>
<circle class="st1" cx="60.66" cy="83.13" r="10.37"/>
<path d="M61.3,44.9l0.93-2.7c0.65-1.19,2.12-1.66,3.34-1.07l3.03,1.46c1.47,0.71,2.03,2.5,1.24,3.92l-0.49,0.87
	c-0.07,0.12-0.22,0.17-0.35,0.11L61.3,44.9z"/>
<path class="st2" d="M66.11,45.22c0,0,0.28-16.94,0.28-25.52S64.01,2.5,75.52,2.5c6,0,12,9,2.57,17.48
	C76.37,21.53,59.52,34.5,52.52,39.5c-11.57,8.26-11,14.24-11,29c0,3,0.23,24.54,0.23,24.54"/>
<polygon points="32.09,91 28.02,96 45.02,96 45.02,91 "/>
</svg>
