<?xml version="1.0" encoding="utf-8"?>
<!-- Generator: Adobe Illustrator 26.2.1, SVG Export Plug-In . SVG Version: 6.00 Build 0)  -->
<svg version="1.1" id="Layer_1" xmlns="http://www.w3.org/2000/svg" xmlns:xlink="http://www.w3.org/1999/xlink" x="0px" y="0px"
	 viewBox="0 0 146 146" style="enable-background:new 0 0 146 146;" xml:space="preserve">
<style type="text/css">
	.st0{fill:#FFFFFF;stroke:#000000;stroke-width:5;stroke-miterlimit:10;}
	.st1{fill:#FFFFFF;stroke:#000000;stroke-width:6;stroke-miterlimit:10;}
	.st2{fill:none;stroke:#000000;stroke-width:5;stroke-miterlimit:10;}
</style>
<g>
	<path d="M17.8,131.9h-3.2v-6.5H8.7v6.5H5.5v-15h3.2v5.9h5.9v-5.9h3.2L17.8,131.9L17.8,131.9z"/>
	<path d="M35.2,124.3c0,2.5-0.6,4.4-1.8,5.7s-3,2-5.3,2s-4.1-0.7-5.3-2s-1.9-3.2-1.9-5.7c0-2.5,0.6-4.4,1.9-5.7c1.2-1.3,3-2,5.3-2
		s4.1,0.7,5.3,2S35.2,121.9,35.2,124.3z M24.3,124.3c0,1.7,0.3,2.9,1,3.8s1.6,1.3,2.9,1.3c2.5,0,3.8-1.7,3.8-5.1
		c0-3.4-1.3-5.1-3.8-5.1c-1.3,0-2.2,0.4-2.9,1.3C24.6,121.4,24.3,122.7,24.3,124.3z"/>
	<path d="M50.5,116.9v9.7c0,1.1-0.2,2.1-0.7,2.9c-0.5,0.8-1.2,1.5-2.2,1.9s-2,0.7-3.3,0.7c-1.9,0-3.4-0.5-4.5-1.5
		c-1.1-1-1.6-2.3-1.6-4.1v-9.7h3.2v9.2c0,1.2,0.2,2,0.7,2.5c0.5,0.5,1.2,0.8,2.3,0.8c1,0,1.8-0.3,2.3-0.8c0.5-0.5,0.7-1.4,0.7-2.6
		v-9.2L50.5,116.9L50.5,116.9z"/>
	<path d="M63,127.7c0,1.3-0.5,2.4-1.5,3.2c-1,0.8-2.3,1.2-4.1,1.2c-1.6,0-3-0.3-4.2-0.9v-2.9c1,0.4,1.9,0.8,2.6,0.9
		c0.7,0.2,1.3,0.3,1.9,0.3c0.7,0,1.2-0.1,1.6-0.4s0.6-0.7,0.6-1.2c0-0.3-0.1-0.6-0.2-0.8c-0.2-0.2-0.4-0.4-0.7-0.7
		c-0.3-0.2-1-0.6-1.9-1c-0.9-0.4-1.6-0.8-2.1-1.2c-0.5-0.4-0.8-0.9-1.1-1.4c-0.3-0.5-0.4-1.1-0.4-1.9c0-1.3,0.5-2.4,1.3-3.1
		s2.1-1.1,3.7-1.1c0.8,0,1.5,0.1,2.2,0.3c0.7,0.2,1.5,0.4,2.2,0.8l-1,2.5c-0.8-0.3-1.5-0.6-2-0.7s-1-0.2-1.5-0.2
		c-0.6,0-1.1,0.1-1.4,0.4s-0.5,0.6-0.5,1.1c0,0.3,0.1,0.5,0.2,0.7c0.1,0.2,0.3,0.4,0.6,0.6c0.3,0.2,1,0.5,2,1.1
		c1.4,0.7,2.4,1.3,2.9,2C62.8,125.9,63,126.7,63,127.7z"/>
	<path d="M74.4,131.9h-8.6v-15h8.6v2.6h-5.4v3.3H74v2.6h-5.1v3.9h5.5L74.4,131.9L74.4,131.9z"/>
	<path d="M92.1,131.9h-3.6l-2-7.9c-0.1-0.3-0.2-0.9-0.4-1.7c-0.2-0.9-0.3-1.5-0.3-1.8c0,0.4-0.1,1-0.3,1.8c-0.2,0.8-0.3,1.4-0.4,1.8
		l-2,7.9h-3.6l-3.8-15h3.1l1.9,8.2c0.3,1.5,0.6,2.8,0.7,3.9c0-0.4,0.1-1,0.3-1.8c0.2-0.8,0.3-1.4,0.4-1.9l2.2-8.4h3l2.2,8.4
		c0.1,0.4,0.2,0.9,0.4,1.7s0.2,1.4,0.3,2c0.1-0.5,0.2-1.2,0.3-2s0.3-1.4,0.4-1.9l1.9-8.2H96L92.1,131.9z"/>
	<path d="M111.4,124.3c0,2.5-0.6,4.4-1.8,5.7s-3,2-5.3,2s-4.1-0.7-5.3-2s-1.8-3.2-1.8-5.7c0-2.5,0.6-4.4,1.8-5.7c1.2-1.3,3-2,5.3-2
		s4.1,0.7,5.3,2S111.4,121.9,111.4,124.3z M100.5,124.3c0,1.7,0.3,2.9,0.9,3.8s1.6,1.3,2.8,1.3c2.5,0,3.8-1.7,3.8-5.1
		c0-3.4-1.3-5.1-3.8-5.1c-1.3,0-2.2,0.4-2.9,1.3S100.5,122.7,100.5,124.3z"/>
	<path d="M117.7,126.1v5.8h-3.2v-15h4.4c2,0,3.5,0.4,4.5,1.1c1,0.7,1.5,1.9,1.5,3.4c0,0.9-0.2,1.7-0.7,2.3c-0.5,0.7-1.2,1.2-2.1,1.6
		c2.3,3.4,3.7,5.6,4.4,6.5H123l-3.6-5.8H117.7z M117.7,123.5h1c1,0,1.8-0.2,2.2-0.5s0.7-0.9,0.7-1.6c0-0.7-0.2-1.2-0.7-1.5
		c-0.5-0.3-1.2-0.4-2.3-0.4h-1L117.7,123.5L117.7,123.5z"/>
	<path d="M140.5,131.9h-3.6l-3.9-6.3l-1.3,1v5.3h-3.2v-15h3.2v6.9l1.2-1.8l4.1-5.1h3.5l-5.2,6.6L140.5,131.9z"/>
</g>
<path class="st0" d="M59.5,96.1V69.2c0-5.9,5.7-10.1,11.3-8.4c9.5,2.9,21.5,9.2,21.5,22v15.9c0,4.9-3.9,8.8-8.8,8.8H68.3
	c-4.8,0-8.8-3.9-8.8-8.8V96.1z"/>
<circle class="st1" cx="66.2" cy="97.1" r="10.4"/>
<path d="M66.8,58.8l0.9-2.7c0.6-1.2,2.1-1.7,3.3-1.1l3,1.5c1.5,0.7,2,2.5,1.2,3.9l-0.5,0.9c-0.1,0.1-0.2,0.2-0.3,0.1L66.8,58.8z"/>
<path class="st2" d="M71.7,59.2c0,0,0.3-16.9,0.3-25.5s-2.4-17.2,9.1-17.2c6,0,12,9,2.6,17.5c-1.7,1.6-18.6,14.5-25.6,19.5
	c-11.6,8.3-11,14.2-11,29c0,3,0.2,24.5,0.2,24.5"/>
</svg>
