<?xml version="1.0" encoding="utf-8"?>
<!-- Generator: Adobe Illustrator 26.2.1, SVG Export Plug-In . SVG Version: 6.00 Build 0)  -->
<svg version="1.1" id="Layer_1" xmlns="http://www.w3.org/2000/svg" xmlns:xlink="http://www.w3.org/1999/xlink" x="0px" y="0px"
	 viewBox="0 0 146 146" style="enable-background:new 0 0 146 146;" xml:space="preserve">
<style type="text/css">
	.st0{fill:#FCFCFC;}
	.st1{fill:none;stroke:#000000;stroke-width:5;stroke-miterlimit:10;}
</style>
<path class="st0" d="M22.45,94.54l83.5-1.37c0,0-5.48-31.49-23.27-32.85c-17.8-1.37-46.45,2.74-48.55,0
	C32.03,57.58,22.45,94.54,22.45,94.54z"/>
<g>
	<path d="M23.27,131.67v-15.71h3.33v15.71H23.27z"/>
	<path d="M33.88,125.64v6.03h-3.33v-15.71h4.58c2.13,0,3.71,0.39,4.74,1.17c1.02,0.78,1.54,1.96,1.54,3.54
		c0,0.92-0.25,1.75-0.76,2.47c-0.51,0.72-1.23,1.28-2.16,1.69c2.36,3.53,3.9,5.81,4.62,6.84h-3.7l-3.75-6.03H33.88z M33.88,122.94
		h1.07c1.05,0,1.83-0.17,2.33-0.53c0.5-0.35,0.75-0.9,0.75-1.65c0-0.74-0.26-1.27-0.77-1.59c-0.51-0.31-1.3-0.47-2.38-0.47h-1.01
		V122.94z"/>
	<path d="M59.33,123.8c0,2.6-0.64,4.6-1.93,5.99s-3.14,2.09-5.54,2.09s-4.25-0.7-5.54-2.09s-1.93-3.4-1.93-6.02
		c0-2.61,0.65-4.61,1.94-5.99s3.15-2.07,5.56-2.07c2.41,0,4.26,0.7,5.54,2.08C58.69,119.19,59.33,121.19,59.33,123.8z M47.87,123.8
		c0,1.75,0.33,3.08,1,3.96c0.67,0.89,1.66,1.33,2.99,1.33c2.66,0,3.99-1.76,3.99-5.3c0-3.54-1.32-5.31-3.96-5.31
		c-1.33,0-2.32,0.45-3,1.34C48.2,120.72,47.87,122.04,47.87,123.8z"/>
	<path d="M76.52,131.67h-4.23l-6.83-11.88h-0.1c0.14,2.1,0.2,3.6,0.2,4.49v7.39h-2.98v-15.71h4.2l6.82,11.76h0.08
		c-0.11-2.04-0.16-3.48-0.16-4.33v-7.43h3V131.67z"/>
	<path d="M80.47,131.67v-15.71h3.33v15.71H80.47z"/>
	<path d="M101.69,131.67h-4.23l-6.83-11.88h-0.1c0.14,2.1,0.2,3.6,0.2,4.49v7.39h-2.98v-15.71h4.2l6.82,11.76h0.08
		c-0.11-2.04-0.16-3.48-0.16-4.33v-7.43h3V131.67z"/>
	<path d="M111.6,122.85h6.23v8.14c-1.01,0.33-1.96,0.56-2.85,0.69c-0.89,0.13-1.8,0.2-2.73,0.2c-2.37,0-4.18-0.7-5.43-2.09
		s-1.87-3.39-1.87-6c0-2.54,0.72-4.51,2.17-5.93s3.46-2.13,6.03-2.13c1.61,0,3.17,0.32,4.66,0.97l-1.11,2.66
		c-1.15-0.57-2.34-0.86-3.58-0.86c-1.44,0-2.59,0.48-3.46,1.45c-0.87,0.97-1.3,2.27-1.3,3.9c0,1.71,0.35,3.01,1.05,3.91
		s1.71,1.35,3.05,1.35c0.69,0,1.4-0.07,2.12-0.21v-3.28h-2.98V122.85z"/>
</g>
<path class="st1" d="M31.35,58.26c0,0,4.79-0.68,42.44-1.37c30.8-0.56,34.08,38.33,34.08,38.33H19.03L42.3,26.78h28.06"/>
<circle cx="56.68" cy="76.74" r="7.53"/>
<path class="st0" d="M76,95"/>
</svg>
