<?xml version="1.0" encoding="utf-8"?>
<!-- Generator: Adobe Illustrator 26.2.1, SVG Export Plug-In . SVG Version: 6.00 Build 0)  -->
<svg version="1.1" id="Layer_1" xmlns="http://www.w3.org/2000/svg" xmlns:xlink="http://www.w3.org/1999/xlink" x="0px" y="0px"
	 viewBox="0 0 146 146" style="enable-background:new 0 0 146 146;" xml:space="preserve">
<style type="text/css">
	.st0{fill:#FFFFFF;}
</style>
<g>
	<path d="M44.9,136.2h-3.8l-4.1-6.6l-1.4,1v5.6h-3.3v-15.7h3.3v7.2l1.3-1.8l4.2-5.3h3.7l-5.5,6.9L44.9,136.2z"/>
	<path d="M55.9,136.2h-9v-15.7h9v2.7h-5.7v3.4h5.3v2.7h-5.3v4.1h5.7V136.2z"/>
	<path d="M65.2,136.2h-3.3v-12.9h-4.3v-2.8h11.9v2.8h-4.3L65.2,136.2L65.2,136.2z"/>
	<path d="M78,136.2h-3.3v-12.9h-4.3v-2.8h11.9v2.8H78L78,136.2L78,136.2z"/>
	<path d="M84.6,136.2v-15.7H88v13h6.4v2.8H84.6z"/>
	<path d="M106.1,136.2h-9v-15.7h9v2.7h-5.7v3.4h5.3v2.7h-5.3v4.1h5.7V136.2z"/>
</g>
<g>
	<rect x="23.9" y="95.7" width="91.7" height="10.7"/>
</g>
<g>
	<path d="M98.6,49.9H43c0,0,11.7-8.6,21.9-11.1v-6h10.5v6C85.9,41.5,98.6,49.9,98.6,49.9z"/>
</g>
<g>
	<path class="st0" d="M27.8,90.9l6.5-25.4l-9.1-5.2l3.7-6.2l9,3.6l1.4-1.4c1.1-1.1,2.6-1.7,4.2-1.7h53.1c1.7,0,3.4,0.5,4.7,1.6
		c1.5,1.1,2.5,2.6,2.9,4.4l7.5,30.4H27.8z"/>
	<path d="M96.6,57.6c1.1,0,2.1,0.3,2.9,1c0.9,0.7,1.5,1.6,1.8,2.7l6.6,26.6H31.8l4.9-19.4l1.1-4.5l-4-2.3l-4.4-2.5l0.8-1.3l4.7,1.9
		l3.7,1.5l2.8-2.8c0.5-0.5,1.3-0.8,2-0.8L96.6,57.6 M27.7,50.3L21,61.4l9.8,5.6l-6.9,27h91.7l-1.6-6.6l-6.8-27.6
		c-0.6-2.5-2.1-4.6-4-6.1c-1.8-1.4-4.1-2.2-6.6-2.2H43.6c-2.4,0-4.7,1-6.3,2.6L27.7,50.3L27.7,50.3z"/>
</g>
<path d="M117.6,53.7h-14.4c1.9,1.5,3.4,3.6,4,6.1l5.3,25.5c6.8-4,13.4-10.4,13.4-19.5C126,54.7,117.6,53.7,117.6,53.7z M118.5,76
	c-0.7,0.8-6.1,4.3-6.7,2.2c-1.7-6.3-4.6-20-4.6-20s11.7-1.7,13.9,2.7C123.3,65.4,122.3,71.9,118.5,76z"/>
</svg>
