<?xml version="1.0" encoding="utf-8"?>
<!-- Generator: Adobe Illustrator 26.2.1, SVG Export Plug-In . SVG Version: 6.00 Build 0)  -->
<svg version="1.1" id="Layer_1" xmlns="http://www.w3.org/2000/svg" xmlns:xlink="http://www.w3.org/1999/xlink" x="0px" y="0px"
	 viewBox="0 0 146 146" style="enable-background:new 0 0 146 146;" xml:space="preserve">
<style type="text/css">
	.st0{fill:#FFFFFF;}
</style>
<g>
	<path d="M44.86,136.17h-3.78l-4.11-6.62l-1.41,1.01v5.61h-3.33v-15.71h3.33v7.19l1.31-1.85l4.25-5.34h3.7l-5.48,6.95L44.86,136.17z
		"/>
	<path d="M55.88,136.17h-9.04v-15.71h9.04v2.73h-5.71v3.45h5.32v2.73h-5.32v4.05h5.71V136.17z"/>
	<path d="M65.22,136.17h-3.33v-12.93h-4.26v-2.77h11.86v2.77h-4.26V136.17z"/>
	<path d="M77.96,136.17h-3.33v-12.93h-4.26v-2.77h11.86v2.77h-4.26V136.17z"/>
	<path d="M84.64,136.17v-15.71h3.33v12.96h6.37v2.75H84.64z"/>
	<path d="M106.11,136.17h-9.04v-15.71h9.04v2.73h-5.71v3.45h5.32v2.73h-5.32v4.05h5.71V136.17z"/>
</g>
<g>
	<rect x="27.88" y="91" width="75.14" height="8.75"/>
</g>
<g>
	<path d="M89.09,53.5H43.5c0,0,9.56-7.01,17.91-9.06v-4.89h8.64v4.94C78.66,46.62,89.09,53.5,89.09,53.5z"/>
</g>
<g>
	<path class="st0" d="M31.1,87.09l5.3-20.81l-7.44-4.27l3.06-5.11l7.37,2.95l1.17-1.16c0.91-0.91,2.13-1.4,3.42-1.4h43.47
		c1.42,0,2.76,0.45,3.88,1.31c1.19,0.9,2.01,2.14,2.37,3.59l6.13,24.9H31.1z"/>
	<path d="M87.44,59.79c0.87,0,1.69,0.28,2.39,0.81c0.72,0.54,1.22,1.3,1.44,2.18l5.37,21.8H34.31l4.03-15.86l0.94-3.68l-3.29-1.89
		l-3.58-2.05l0.66-1.1l3.87,1.55l3.05,1.22l2.33-2.31c0.44-0.44,1.03-0.68,1.66-0.68H87.44 M30.97,53.79l-5.47,9.12l8,4.59
		l-5.62,22.09h75.14l-1.33-5.38l-5.57-22.62c-0.51-2.05-1.69-3.78-3.28-4.98c-1.51-1.15-3.39-1.82-5.4-1.82H43.97
		c-1.99,0-3.83,0.79-5.18,2.13L30.97,53.79L30.97,53.79z"/>
</g>
<path d="M104.65,56.61H92.84c1.59,1.2,2.77,2.93,3.28,4.98l4.38,20.91c5.61-3.29,11-8.48,11-16
	C111.5,57.38,104.65,56.61,104.65,56.61z M105.38,74.85c-0.61,0.65-4.99,3.56-5.47,1.82c-1.41-5.17-3.79-16.41-3.79-16.41
	s9.56-1.41,11.38,2.24C109.32,66.15,108.5,71.5,105.38,74.85z"/>
</svg>
