<?xml version="1.0" encoding="utf-8"?>
<!-- Generator: Adobe Illustrator 26.2.1, SVG Export Plug-In . SVG Version: 6.00 Build 0)  -->
<svg version="1.1" id="Layer_1" xmlns="http://www.w3.org/2000/svg" xmlns:xlink="http://www.w3.org/1999/xlink" x="0px" y="0px"
	 viewBox="0 0 146 146" style="enable-background:new 0 0 146 146;" xml:space="preserve">
<style type="text/css">
	.st0{fill:#FFFFFF;}
</style>
<g>
	<path d="M22.26,136.67v-15.71h3.33v12.96h6.37v2.75H22.26z"/>
	<path d="M34.69,136.67v-15.71h3.33v15.71H34.69z"/>
	<path d="M47.93,127.85h6.23v8.14c-1.01,0.33-1.96,0.56-2.85,0.69c-0.89,0.13-1.8,0.2-2.73,0.2c-2.37,0-4.18-0.7-5.43-2.09
		s-1.87-3.39-1.87-6c0-2.54,0.72-4.51,2.17-5.93s3.46-2.13,6.03-2.13c1.61,0,3.17,0.32,4.66,0.97l-1.11,2.66
		c-1.15-0.57-2.34-0.86-3.58-0.86c-1.44,0-2.59,0.48-3.46,1.45c-0.87,0.97-1.3,2.27-1.3,3.9c0,1.71,0.35,3.01,1.05,3.91
		s1.71,1.35,3.05,1.35c0.69,0,1.4-0.07,2.12-0.21v-3.28h-2.98V127.85z"/>
	<path d="M70.77,136.67h-3.32v-6.78h-6.22v6.78H57.9v-15.71h3.33v6.16h6.22v-6.16h3.32V136.67z"/>
	<path d="M80.8,136.67h-3.33v-12.93H73.2v-2.77h11.86v2.77H80.8V136.67z"/>
	<path d="M87.48,136.67v-15.71h3.33v15.71H87.48z"/>
	<path d="M108.69,136.67h-4.23l-6.83-11.88h-0.1c0.14,2.1,0.2,3.6,0.2,4.49v7.39h-2.98v-15.71h4.2l6.82,11.76h0.08
		c-0.11-2.04-0.16-3.48-0.16-4.33v-7.43h3V136.67z"/>
	<path d="M118.61,127.85h6.23v8.14c-1.01,0.33-1.96,0.56-2.85,0.69c-0.89,0.13-1.8,0.2-2.73,0.2c-2.37,0-4.18-0.7-5.43-2.09
		s-1.87-3.39-1.87-6c0-2.54,0.72-4.51,2.17-5.93s3.46-2.13,6.03-2.13c1.61,0,3.17,0.32,4.66,0.97l-1.11,2.66
		c-1.15-0.57-2.34-0.86-3.58-0.86c-1.44,0-2.59,0.48-3.46,1.45c-0.87,0.97-1.3,2.27-1.3,3.9c0,1.71,0.35,3.01,1.05,3.91
		s1.71,1.35,3.05,1.35c0.69,0,1.4-0.07,2.12-0.21v-3.28h-2.98V127.85z"/>
</g>
<circle cx="73" cy="45.61" r="30.93"/>
<path d="M75.39,102.32h-5.72c-10.49,0-13.85-3.44-13.85-22.34L45.51,58.03c0-3.06,7.64-5.55,10.7-5.55h33.58
	c3.06,0,10.7,2.48,10.7,5.55L90.18,79.98C90.18,97.16,86.41,102.32,75.39,102.32z"/>
<rect x="55.82" y="83.42" class="st0" width="34.37" height="3.44"/>
<rect x="55.82" y="88.57" class="st0" width="34.37" height="3.44"/>
<rect x="55.82" y="93.73" class="st0" width="34.37" height="3.44"/>
<path class="st0" d="M51.92,31.98c0,0,2.22-7.31,9.98-7.31S51.92,31.98,51.92,31.98z"/>
</svg>
