<?xml version="1.0" encoding="utf-8"?>
<!-- Generator: Adobe Illustrator 26.2.1, SVG Export Plug-In . SVG Version: 6.00 Build 0)  -->
<svg version="1.1" id="Layer_1" xmlns="http://www.w3.org/2000/svg" xmlns:xlink="http://www.w3.org/1999/xlink" x="0px" y="0px"
	 viewBox="0 0 146 146" style="enable-background:new 0 0 146 146;" xml:space="preserve">
<style type="text/css">
	.st0{fill:#FFFFFF;}
	.st1{stroke:#FFFFFF;stroke-miterlimit:10;}
</style>
<g>
	<path class="st0" d="M91.5,92.2c-17.1,0-31.6-13.3-33-30.4C57,43.6,70.6,27.5,88.8,26c0.9-0.1,1.9-0.1,2.8-0.1
		c17.1,0,31.6,13.3,33,30.4c1.5,18.2-12,34.3-30.3,35.8C93.4,92.2,92.4,92.2,91.5,92.2z"/>
	<path d="M91.6,22.9v6c7.5,0,14.7,2.8,20.3,7.9c5.6,5.1,9.1,12.1,9.7,19.7c1.4,16.6-11,31.2-27.5,32.6c-0.8,0.1-1.7,0.1-2.6,0.1
		c-7.5,0-14.7-2.8-20.3-7.9c-5.6-5.1-9.1-12.1-9.7-19.7C60.1,45,72.4,30.4,89,29c0.8-0.1,1.7-0.1,2.6-0.1V22.9 M91.6,22.9
		c-1,0-2,0-3.1,0.1c-19.9,1.7-34.7,19.2-33,39c1.6,18.9,17.4,33.1,36,33.1c1,0,2,0,3.1-0.1c19.9-1.7,34.7-19.2,33-39
		C126,37.1,110.2,22.9,91.6,22.9L91.6,22.9z"/>
</g>
<path class="st1" d="M46.6,89.5V32.7c0-1.5-1.9-2.1-2.8-1C40.4,36,35.6,44,38.3,52c2.1,6.1,4,7.6,4,7.6l-3.1,24.5
	c-0.4,3.5,0.7,6.9,3.1,9.5l0,0h0.1C44.7,93.6,46.6,91.8,46.6,89.5z"/>
<g>
	<path class="st1" d="M27,94.1l1.8-0.1c2.6-3,3-3.2,2.6-8.1l-2.7-37h-2.7c0,0-3.5,37.2-1.8,41.2S27,94.1,27,94.1z"/>
	<path d="M27.8,51l4.2-4.6c0.2-0.2,0.3-0.5,0.3-0.8V33.2c0-0.6-0.3-1-0.7-1l0,0c-0.4,0-0.7,0.4-0.7,1c-0.1,1.8-0.3,5.9-0.8,8.4
		c-0.7,3.4-1.8,0-1.8,0v-8.3c0-0.6-0.3-1-0.7-1h-0.4c-0.4,0-0.7,0.5-0.7,1v8.3c0,0-0.9,4-1.8,0c-0.6-2.8-0.8-6.6-0.9-8.4
		c0-0.5-0.3-1-0.7-1h-0.4c-0.4,0-0.7,0.5-0.7,1.1l0.3,12.5c0,0.3,0.1,0.6,0.3,0.8L27,51C27.3,51.3,27.6,51.3,27.8,51z"/>
</g>
<g>
	<path d="M36.8,131.7V116h3.3v13h6.4v2.8H36.8z"/>
	<path d="M62.1,116v10.2c0,1.2-0.3,2.2-0.8,3.1c-0.5,0.9-1.3,1.5-2.2,2s-2.1,0.7-3.5,0.7c-2,0-3.6-0.5-4.7-1.6s-1.7-2.4-1.7-4.2V116
		h3.3v9.6c0,1.2,0.2,2.1,0.7,2.7c0.5,0.6,1.3,0.9,2.4,0.9c1.1,0,1.9-0.3,2.4-0.9s0.7-1.5,0.7-2.7V116L62.1,116L62.1,116z"/>
	<path d="M79.8,131.7h-4.2l-6.8-11.9h-0.1c0.1,2.1,0.2,3.6,0.2,4.5v7.4h-3V116h4.2l6.8,11.8H77c-0.1-2-0.2-3.5-0.2-4.3V116h3
		C79.8,116,79.8,131.7,79.8,131.7z"/>
	<path d="M90.5,118.5c-1.2,0-2.2,0.5-2.9,1.4s-1,2.2-1,3.9c0,3.5,1.3,5.3,3.9,5.3c1.1,0,2.4-0.3,4-0.8v2.8c-1.3,0.5-2.7,0.8-4.3,0.8
		c-2.3,0-4-0.7-5.2-2.1s-1.8-3.4-1.8-6c0-1.6,0.3-3.1,0.9-4.3s1.4-2.2,2.6-2.8s2.4-1,3.9-1c1.5,0,3.1,0.4,4.6,1.1l-1.1,2.7
		c-0.6-0.3-1.2-0.5-1.8-0.7C91.6,118.6,91,118.5,90.5,118.5z"/>
	<path d="M110.7,131.7h-3.3v-6.8h-6.2v6.8h-3.3V116h3.3v6.2h6.2V116h3.3V131.7z"/>
</g>
</svg>
