<?xml version="1.0" encoding="utf-8"?>
<!-- Generator: Adobe Illustrator 26.2.1, SVG Export Plug-In . SVG Version: 6.00 Build 0)  -->
<svg version="1.1" id="Layer_1" xmlns="http://www.w3.org/2000/svg" xmlns:xlink="http://www.w3.org/1999/xlink" x="0px" y="0px"
	 viewBox="0 0 146 146" style="enable-background:new 0 0 146 146;" xml:space="preserve">
<style type="text/css">
	.st0{fill:#FFFFFF;}
	.st1{stroke:#000000;stroke-miterlimit:10;}
</style>
<g>
	<path d="M44.69,130.67c0,2.59-0.74,4.57-2.21,5.94s-3.6,2.06-6.38,2.06h-4.45v-15.71h4.93c2.56,0,4.55,0.68,5.97,2.03
		S44.69,128.24,44.69,130.67z M41.23,130.75c0-3.37-1.49-5.06-4.47-5.06h-1.77v10.23h1.43C39.62,135.92,41.23,134.2,41.23,130.75z"
		/>
	<path d="M47.94,138.67v-15.71h3.33v15.71H47.94z"/>
	<path d="M69.16,138.67h-4.23l-6.83-11.88H58c0.14,2.1,0.2,3.6,0.2,4.49v7.39h-2.98v-15.71h4.2l6.82,11.76h0.08
		c-0.11-2.04-0.16-3.48-0.16-4.33v-7.43h3V138.67z"/>
	<path d="M87.04,138.67h-4.23l-6.83-11.88h-0.1c0.14,2.1,0.2,3.6,0.2,4.49v7.39h-2.98v-15.71h4.2l6.82,11.76h0.08
		c-0.11-2.04-0.16-3.48-0.16-4.33v-7.43h3V138.67z"/>
	<path d="M100.04,138.67H91v-15.71h9.04v2.73h-5.71v3.45h5.32v2.73h-5.32v4.05h5.71V138.67z"/>
	<path d="M106.65,132.64v6.03h-3.33v-15.71h4.58c2.13,0,3.71,0.39,4.74,1.17c1.02,0.78,1.54,1.96,1.54,3.54
		c0,0.92-0.25,1.75-0.76,2.47c-0.51,0.72-1.23,1.28-2.16,1.69c2.36,3.53,3.9,5.81,4.62,6.84h-3.7l-3.75-6.03H106.65z M106.65,129.94
		h1.07c1.05,0,1.83-0.17,2.33-0.53c0.5-0.35,0.75-0.9,0.75-1.65c0-0.74-0.26-1.27-0.77-1.59c-0.51-0.31-1.31-0.47-2.38-0.47h-1.01
		V129.94z"/>
</g>
<g>
	<path class="st0" d="M93.56,98.49C75.3,98.49,59.8,84.22,58.27,66c-0.79-9.44,2.14-18.62,8.25-25.85
		c6.11-7.23,14.67-11.65,24.11-12.45c1-0.08,2.01-0.13,3.01-0.13c18.25,0,33.75,14.27,35.28,32.48
		c1.64,19.48-12.88,36.66-32.36,38.29C95.57,98.44,94.55,98.49,93.56,98.49z"/>
	<path d="M93.65,24.58v6c8.1,0,15.87,3.03,21.87,8.52c6.04,5.52,9.74,13.06,10.42,21.22c1.5,17.83-11.79,33.56-29.62,35.05
		c-0.92,0.08-1.85,0.12-2.76,0.12c-8.1,0-15.87-3.03-21.87-8.52c-6.04-5.52-9.74-13.06-10.42-21.22
		c-0.73-8.64,1.96-17.04,7.55-23.66c5.59-6.62,13.43-10.67,22.07-11.39c0.92-0.08,1.84-0.12,2.76-0.12L93.65,24.58 M93.64,24.58
		c-1.08,0-2.17,0.05-3.26,0.14c-21.16,1.78-36.87,20.37-35.1,41.53c1.69,20.07,18.49,35.23,38.27,35.23c1.08,0,2.17-0.05,3.26-0.14
		c21.16-1.78,36.87-20.37,35.1-41.53C130.23,39.75,113.42,24.58,93.64,24.58L93.64,24.58z"/>
</g>
<path class="st1" d="M45.8,95.43V34.99c0-1.56-2.02-2.25-2.99-1.01c-3.56,4.56-8.68,13.06-5.8,21.55c2.2,6.48,4.25,8.1,4.25,8.1
	l-3.27,26.06c-0.46,3.68,0.73,7.37,3.27,10.11l0,0h0.09C43.8,99.8,45.8,97.84,45.8,95.43z"/>
<g>
	<path class="st1" d="M24.96,100.35l1.92-0.09c2.8-3.17,3.17-3.35,2.8-8.62l-2.84-39.3H24c0,0-3.76,39.51-1.87,43.77
		C24.02,100.35,24.96,100.35,24.96,100.35z"/>
	<path d="M25.83,54.54l4.5-4.9c0.19-0.21,0.3-0.54,0.3-0.89V35.53c0-0.61-0.33-1.1-0.73-1.1h0c-0.38,0-0.7,0.44-0.73,1.02
		c-0.09,1.97-0.35,6.31-0.9,8.9c-0.77,3.61-1.89,0-1.89,0v-8.82c0-0.61-0.33-1.1-0.73-1.1h-0.42c-0.4,0-0.73,0.49-0.73,1.1v8.82
		c0,0-0.94,4.25-1.89,0c-0.66-2.99-0.86-7.01-0.92-8.88c-0.02-0.59-0.34-1.04-0.73-1.04h-0.42c-0.42,0-0.75,0.52-0.73,1.14
		l0.34,13.27c0.01,0.34,0.12,0.66,0.31,0.85l4.53,4.85C25.23,54.82,25.58,54.82,25.83,54.54z"/>
</g>
</svg>
