<?xml version="1.0" encoding="utf-8"?>
<!-- Generator: Adobe Illustrator 26.2.1, SVG Export Plug-In . SVG Version: 6.00 Build 0)  -->
<svg version="1.1" id="Layer_1" xmlns="http://www.w3.org/2000/svg" xmlns:xlink="http://www.w3.org/1999/xlink" x="0px" y="0px"
	 viewBox="0 0 146 146" style="enable-background:new 0 0 146 146;" xml:space="preserve">
<style type="text/css">
	.st0{fill:#FFFFFF;}
	.st1{stroke:#FFFFFF;stroke-miterlimit:10;}
</style>
<g>
	<path d="M16.1,115.9h4.4c2,0,3.5,0.3,4.4,0.9s1.4,1.5,1.4,2.8c0,0.8-0.2,1.6-0.6,2.1s-0.9,0.9-1.6,1v0.1c0.9,0.2,1.6,0.6,2,1.1
		c0.4,0.6,0.6,1.3,0.6,2.2c0,1.3-0.5,2.3-1.4,3.1s-2.2,1.1-3.8,1.1h-5.3V115.9z M19.1,121.5h1.8c0.8,0,1.4-0.1,1.8-0.4
		s0.5-0.7,0.5-1.3c0-0.6-0.2-0.9-0.6-1.2s-1-0.4-1.9-0.4h-1.6V121.5z M19.1,123.9v3.7h2c0.8,0,1.5-0.2,1.9-0.5s0.6-0.8,0.6-1.5
		c0-1.2-0.9-1.8-2.5-1.8H19.1z"/>
	<path d="M32.6,124.7v5.5h-3v-14.3h4.2c1.9,0,3.4,0.3,4.3,1.1s1.4,1.8,1.4,3.2c0,0.8-0.2,1.6-0.7,2.2s-1.1,1.2-2,1.5
		c2.2,3.2,3.5,5.3,4.2,6.2h-3.4l-3.4-5.5C34.2,124.7,32.6,124.7,32.6,124.7z M32.6,122.2h1c1,0,1.7-0.2,2.1-0.5s0.7-0.8,0.7-1.5
		s-0.2-1.2-0.7-1.4c-0.5-0.3-1.2-0.4-2.2-0.4h-0.9V122.2z"/>
	<path d="M51,130.1h-8.2v-14.3H51v2.5h-5.2v3.1h4.8v2.5h-4.8v3.7H51V130.1z"/>
	<path d="M62.7,130.1l-1-3.4h-5.2l-1,3.4h-3.3l5-14.3h3.7l5.1,14.3H62.7z M60.9,124.2c-1-3.1-1.5-4.8-1.6-5.2s-0.2-0.7-0.3-1
		c-0.2,0.8-0.8,2.9-1.8,6.2H60.9z"/>
	<path d="M79.2,130.1h-3.4l-3.7-6l-1.3,0.9v5.1h-3v-14.3h3v6.5l1.2-1.7l3.9-4.8h3.4l-5,6.3L79.2,130.1z"/>
	<path d="M84,130.1h-3v-14.3h8.2v2.5H84v3.7h4.8v2.5H84L84,130.1L84,130.1z"/>
	<path d="M100.7,130.1l-1-3.4h-5.2l-1,3.4h-3.3l5-14.3h3.7l5.1,14.3H100.7z M99,124.2c-1-3.1-1.5-4.8-1.6-5.2s-0.2-0.7-0.3-1
		c-0.2,0.8-0.8,2.9-1.8,6.2H99z"/>
	<path d="M114.2,126.2c0,1.3-0.5,2.3-1.4,3.1s-2.2,1.1-3.9,1.1c-1.5,0-2.9-0.3-4-0.9v-2.8c1,0.4,1.8,0.7,2.4,0.9s1.3,0.3,1.8,0.3
		c0.7,0,1.2-0.1,1.5-0.4s0.5-0.6,0.5-1.1c0-0.3-0.1-0.5-0.2-0.8c-0.2-0.2-0.4-0.4-0.7-0.6s-0.9-0.5-1.8-1c-0.9-0.4-1.5-0.8-2-1.2
		c-0.4-0.4-0.8-0.8-1-1.3s-0.4-1.1-0.4-1.8c0-1.3,0.4-2.3,1.3-3s2-1.1,3.6-1.1c0.7,0,1.4,0.1,2.1,0.3s1.4,0.4,2.1,0.7l-1,2.3
		c-0.8-0.3-1.4-0.5-1.9-0.7s-1-0.2-1.5-0.2c-0.6,0-1,0.1-1.3,0.4c-0.3,0.3-0.5,0.6-0.5,1c0,0.3,0.1,0.5,0.2,0.7
		c0.1,0.2,0.3,0.4,0.6,0.6s0.9,0.5,1.9,1c1.3,0.6,2.2,1.3,2.7,1.9C114,124.5,114.2,125.2,114.2,126.2z"/>
	<path d="M122.3,130.1h-3v-11.8h-3.9v-2.5h10.8v2.5h-3.9L122.3,130.1L122.3,130.1z"/>
</g>
<g>
	<path class="st0" d="M91.5,92.7c-17.1,0-31.6-13.3-33-30.4C57,44.1,70.6,28,88.8,26.5c0.9-0.1,1.9-0.1,2.8-0.1
		c17.1,0,31.6,13.3,33,30.4c1.5,18.2-12,34.3-30.3,35.8C93.4,92.7,92.4,92.7,91.5,92.7z"/>
	<path d="M91.6,23.4v6c7.5,0,14.7,2.8,20.3,7.9c5.6,5.1,9.1,12.1,9.7,19.7c1.4,16.6-11,31.2-27.5,32.6c-0.8,0.1-1.7,0.1-2.6,0.1
		c-7.5,0-14.7-2.8-20.3-7.9c-5.6-5.1-9.1-12.1-9.7-19.7c-1.4-16.6,11-31.2,27.5-32.6c0.8-0.1,1.7-0.1,2.6-0.1V23.4 M91.6,23.4
		c-1,0-2,0-3.1,0.1c-19.9,1.7-34.7,19.2-33,39c1.6,18.9,17.4,33.1,36,33.1c1,0,2,0,3.1-0.1c19.9-1.7,34.7-19.2,33-39
		C126,37.6,110.2,23.4,91.6,23.4L91.6,23.4z"/>
</g>
<path class="st1" d="M46.6,90V33.2c0-1.5-1.9-2.1-2.8-1c-3.3,4.3-8.2,12.3-5.5,20.3c2.1,6.1,4,7.6,4,7.6l-3.1,24.5
	c-0.4,3.5,0.7,6.9,3.1,9.5l0,0h0.1C44.7,94.1,46.6,92.3,46.6,90z"/>
<g>
	<path class="st1" d="M27,94.6l1.8-0.1c2.6-3,3-3.2,2.6-8.1l-2.7-37h-2.7c0,0-3.5,37.2-1.8,41.2S27,94.6,27,94.6z"/>
	<path d="M27.8,51.5L32,47c0.2-0.2,0.3-0.5,0.3-0.8V33.7c0-0.6-0.3-1-0.7-1l0,0c-0.4,0-0.7,0.4-0.7,1c-0.1,1.8-0.3,5.9-0.8,8.4
		c-0.7,3.4-1.8,0-1.8,0v-8.3c0-0.6-0.3-1-0.7-1h-0.4c-0.4,0-0.7,0.5-0.7,1V42c0,0-0.9,4-1.8,0c-0.6-2.8-0.8-6.6-0.9-8.4
		c0-0.5-0.3-1-0.7-1h-0.4c-0.4,0-0.7,0.5-0.7,1.1l0.3,12.5c0,0.3,0.1,0.6,0.3,0.8l4.3,4.6C27.3,51.8,27.6,51.8,27.8,51.5z"/>
</g>
</svg>
