<?xml version="1.0" encoding="utf-8"?>
<!-- Generator: Adobe Illustrator 26.2.1, SVG Export Plug-In . SVG Version: 6.00 Build 0)  -->
<svg version="1.1" id="Layer_1" xmlns="http://www.w3.org/2000/svg" xmlns:xlink="http://www.w3.org/1999/xlink" x="0px" y="0px"
	 viewBox="0 0 146 146" style="enable-background:new 0 0 146 146;" xml:space="preserve">
<style type="text/css">
	.st0{fill:#FFFFFF;}
	.st1{stroke:#FFFFFF;stroke-miterlimit:10;}
</style>
<g>
	<path class="st0" d="M89.56,92.3c-17.13,0-31.67-13.39-33.11-30.48c-0.74-8.85,2-17.47,7.74-24.26
		c5.73-6.79,13.77-10.93,22.62-11.68c0.94-0.08,1.89-0.12,2.83-0.12c17.13,0,31.67,13.39,33.11,30.48
		c1.54,18.28-12.09,34.4-30.36,35.93C91.44,92.26,90.49,92.3,89.56,92.3z"/>
	<path d="M89.64,22.77v6c7.55,0,14.8,2.82,20.4,7.95c5.63,5.15,9.08,12.18,9.72,19.79c1.4,16.63-11,31.3-27.63,32.69
		c-0.86,0.07-1.72,0.11-2.57,0.11c-7.55,0-14.8-2.82-20.4-7.94c-5.63-5.15-9.08-12.18-9.72-19.79c-1.4-16.63,11-31.3,27.63-32.69
		c0.85-0.07,1.72-0.11,2.57-0.11L89.64,22.77 M89.64,22.77c-1.02,0-2.04,0.04-3.08,0.13c-19.96,1.68-34.78,19.22-33.1,39.17
		C55.05,81,70.9,95.3,89.56,95.3c1.02,0,2.04-0.04,3.08-0.13c19.96-1.68,34.78-19.22,33.1-39.17
		C124.14,37.07,108.29,22.76,89.64,22.77L89.64,22.77z"/>
</g>
<path class="st1" d="M44.51,89.59V32.58c0-1.47-1.9-2.12-2.82-0.96c-3.36,4.3-8.19,12.32-5.47,20.33c2.07,6.11,4.01,7.64,4.01,7.64
	l-3.08,24.58c-0.44,3.47,0.69,6.95,3.08,9.54l0,0h0.08C42.63,93.71,44.51,91.86,44.51,89.59z"/>
<g>
	<path class="st1" d="M24.86,94.23l1.81-0.09c2.64-2.99,2.99-3.16,2.64-8.13l-2.68-37.07h-2.69c0,0-3.54,37.27-1.76,41.28
		S24.86,94.23,24.86,94.23z"/>
	<path d="M25.68,51.03l4.24-4.62c0.18-0.19,0.29-0.51,0.29-0.84V33.09c0-0.57-0.31-1.04-0.69-1.04h0c-0.36,0-0.66,0.42-0.69,0.96
		c-0.09,1.85-0.33,5.95-0.85,8.4c-0.72,3.41-1.78,0-1.78,0v-8.32c0-0.57-0.31-1.04-0.69-1.04h-0.4c-0.38,0-0.69,0.46-0.69,1.04v8.32
		c0,0-0.89,4.01-1.78,0c-0.63-2.82-0.81-6.61-0.87-8.38c-0.02-0.55-0.32-0.98-0.69-0.98h-0.4c-0.39,0-0.7,0.49-0.69,1.08l0.32,12.51
		c0.01,0.32,0.11,0.62,0.29,0.8l4.28,4.58C25.11,51.29,25.44,51.29,25.68,51.03z"/>
</g>
<g>
	<path d="M16.09,115.87h4.44c2.02,0,3.49,0.29,4.41,0.86s1.37,1.49,1.37,2.75c0,0.85-0.2,1.55-0.6,2.1s-0.93,0.88-1.6,0.99v0.1
		c0.9,0.2,1.56,0.58,1.96,1.13c0.4,0.55,0.6,1.29,0.6,2.21c0,1.3-0.47,2.32-1.41,3.05c-0.94,0.73-2.22,1.09-3.83,1.09h-5.34V115.87z
		 M19.12,121.53h1.76c0.82,0,1.41-0.13,1.78-0.38s0.55-0.67,0.55-1.26c0-0.55-0.2-0.94-0.6-1.18c-0.4-0.24-1.03-0.36-1.9-0.36h-1.59
		V121.53z M19.12,123.93v3.72h1.97c0.83,0,1.45-0.16,1.85-0.48c0.4-0.32,0.6-0.81,0.6-1.46c0-1.19-0.85-1.78-2.54-1.78H19.12z"/>
	<path d="M32.56,124.67v5.48h-3.03v-14.28h4.16c1.94,0,3.38,0.35,4.31,1.06c0.93,0.71,1.4,1.78,1.4,3.22c0,0.84-0.23,1.59-0.69,2.24
		s-1.12,1.17-1.96,1.54c2.15,3.21,3.55,5.28,4.2,6.22h-3.36l-3.41-5.48H32.56z M32.56,122.21h0.98c0.96,0,1.66-0.16,2.12-0.48
		c0.46-0.32,0.68-0.82,0.68-1.5c0-0.68-0.23-1.16-0.7-1.45c-0.47-0.29-1.19-0.43-2.16-0.43h-0.92V122.21z"/>
	<path d="M50.95,130.15h-8.22v-14.28h8.22v2.48h-5.2v3.13h4.83v2.48h-4.83v3.68h5.2V130.15z"/>
	<path d="M62.67,130.15l-1.04-3.4h-5.21l-1.04,3.4h-3.26l5.04-14.34h3.7l5.06,14.34H62.67z M60.91,124.21
		c-0.96-3.08-1.5-4.82-1.62-5.22c-0.12-0.4-0.21-0.72-0.26-0.96c-0.21,0.83-0.83,2.89-1.85,6.18H60.91z"/>
	<path d="M79.22,130.15h-3.44l-3.74-6.02l-1.28,0.92v5.1h-3.03v-14.28h3.03v6.53l1.19-1.68l3.87-4.85h3.36l-4.98,6.32L79.22,130.15z
		"/>
	<path d="M83.99,130.15h-2.98v-14.28h8.18v2.48h-5.21v3.68h4.84v2.47h-4.84V130.15z"/>
	<path d="M100.73,130.15l-1.04-3.4h-5.21l-1.04,3.4h-3.26l5.04-14.34h3.7l5.06,14.34H100.73z M98.97,124.21
		c-0.96-3.08-1.5-4.82-1.62-5.22c-0.12-0.4-0.21-0.72-0.26-0.96c-0.21,0.83-0.83,2.89-1.85,6.18H98.97z"/>
	<path d="M114.22,126.19c0,1.29-0.46,2.3-1.39,3.05s-2.22,1.11-3.87,1.11c-1.52,0-2.87-0.29-4.04-0.86v-2.81
		c0.96,0.43,1.78,0.73,2.45,0.91s1.28,0.26,1.83,0.26c0.66,0,1.17-0.13,1.53-0.38s0.53-0.63,0.53-1.13c0-0.28-0.08-0.53-0.23-0.75
		c-0.16-0.22-0.39-0.43-0.69-0.63c-0.3-0.2-0.92-0.52-1.85-0.97c-0.87-0.41-1.53-0.8-1.96-1.18c-0.44-0.38-0.78-0.82-1.04-1.32
		c-0.26-0.5-0.39-1.09-0.39-1.76c0-1.26,0.43-2.26,1.28-2.98s2.04-1.08,3.55-1.08c0.74,0,1.45,0.09,2.12,0.26s1.38,0.42,2.11,0.74
		l-0.98,2.35c-0.76-0.31-1.39-0.53-1.89-0.65c-0.5-0.12-0.99-0.19-1.47-0.19c-0.57,0-1.01,0.13-1.32,0.4
		c-0.31,0.27-0.46,0.62-0.46,1.04c0,0.27,0.06,0.5,0.19,0.7c0.12,0.2,0.32,0.39,0.59,0.58s0.91,0.52,1.92,1
		c1.33,0.64,2.25,1.28,2.74,1.92C113.97,124.47,114.22,125.25,114.22,126.19z"/>
	<path d="M122.31,130.15h-3.03v-11.76h-3.88v-2.52h10.78v2.52h-3.88V130.15z"/>
</g>
</svg>
