<?xml version="1.0" encoding="utf-8"?>
<!-- Generator: Adobe Illustrator 26.2.1, SVG Export Plug-In . SVG Version: 6.00 Build 0)  -->
<svg version="1.1" id="Layer_1" xmlns="http://www.w3.org/2000/svg" xmlns:xlink="http://www.w3.org/1999/xlink" x="0px" y="0px"
	 viewBox="0 0 146 146" style="enable-background:new 0 0 146 146;" xml:space="preserve">
<style type="text/css">
	.st0{fill:#FFFFFF;}
	.st1{stroke:#FFFFFF;stroke-miterlimit:10;}
</style>
<g>
	<path class="st0" d="M95.5,92.19c-17.07,0-31.57-13.34-33-30.38c-1.53-18.22,12.05-34.28,30.26-35.81
		c0.94-0.08,1.88-0.12,2.82-0.12c17.07,0,31.57,13.34,33,30.38c1.53,18.22-12.04,34.28-30.26,35.81
		C97.38,92.15,96.44,92.19,95.5,92.19z"/>
	<path d="M95.59,22.88v6c7.53,0,14.74,2.81,20.32,7.92c5.61,5.13,9.05,12.13,9.68,19.72c1.39,16.57-10.96,31.18-27.52,32.57
		c-0.85,0.07-1.72,0.11-2.57,0.11c-7.53,0-14.74-2.81-20.32-7.92c-5.61-5.13-9.05-12.13-9.69-19.72
		C64.1,44.99,76.45,30.38,93.02,28.98c0.85-0.07,1.71-0.11,2.57-0.11L95.59,22.88 M95.59,22.88c-1.01,0-2.04,0.04-3.07,0.13
		c-19.9,1.67-34.67,19.16-33,39.05C61.1,80.93,76.91,95.19,95.5,95.19c1.01,0,2.04-0.04,3.07-0.13c19.9-1.67,34.67-19.16,33-39.05
		C129.99,37.14,114.18,22.88,95.59,22.88L95.59,22.88z"/>
</g>
<path class="st1" d="M50.6,89.49V32.66c0-1.47-1.9-2.12-2.81-0.95c-3.35,4.29-8.16,12.28-5.46,20.27c2.07,6.09,4,7.62,4,7.62
	l-3.07,24.51c-0.43,3.46,0.69,6.93,3.07,9.51l0,0h0.08C48.72,93.6,50.6,91.76,50.6,89.49z"/>
<g>
	<path class="st1" d="M31.01,94.12l1.81-0.09c2.63-2.98,2.98-3.15,2.63-8.11l-2.67-36.96H30.1c0,0-3.53,37.16-1.76,41.15
		S31.01,94.12,31.01,94.12z"/>
	<path d="M31.82,51.05l4.23-4.6c0.18-0.19,0.28-0.51,0.28-0.84V33.17c0-0.57-0.31-1.03-0.69-1.03l0,0c-0.36,0-0.66,0.42-0.69,0.96
		c-0.09,1.85-0.33,5.93-0.84,8.37c-0.72,3.4-1.78,0-1.78,0v-8.3c0-0.57-0.31-1.03-0.69-1.03h-0.4c-0.38,0-0.69,0.46-0.69,1.03v8.3
		c0,0-0.89,4-1.78,0c-0.63-2.82-0.81-6.59-0.87-8.35c-0.02-0.55-0.32-0.98-0.69-0.98h-0.4c-0.39,0-0.7,0.49-0.69,1.07l0.32,12.48
		c0.01,0.32,0.11,0.62,0.29,0.8l4.26,4.56C31.26,51.31,31.58,51.31,31.82,51.05z"/>
</g>
<g>
	<path d="M34.85,131.67v-15.71h3.33v12.96h6.37v2.75H34.85z"/>
	<path d="M60.06,115.96v10.16c0,1.16-0.26,2.18-0.78,3.05c-0.52,0.87-1.27,1.54-2.25,2.01c-0.98,0.47-2.14,0.7-3.48,0.7
		c-2.02,0-3.59-0.52-4.71-1.55s-1.68-2.45-1.68-4.25v-10.12h3.32v9.61c0,1.21,0.24,2.1,0.73,2.66c0.49,0.57,1.29,0.85,2.42,0.85
		c1.09,0,1.88-0.28,2.37-0.85s0.74-1.46,0.74-2.68v-9.59H60.06z"/>
	<path d="M77.84,131.67h-4.23l-6.83-11.88h-0.1c0.14,2.1,0.2,3.6,0.2,4.49v7.39h-2.98v-15.71h4.2l6.82,11.76h0.08
		c-0.11-2.04-0.16-3.48-0.16-4.33v-7.43h3V131.67z"/>
	<path d="M88.47,118.51c-1.25,0-2.22,0.47-2.91,1.41s-1.03,2.25-1.03,3.94c0,3.5,1.31,5.25,3.94,5.25c1.1,0,2.44-0.28,4.01-0.83
		v2.79c-1.29,0.54-2.73,0.81-4.32,0.81c-2.29,0-4.03-0.69-5.24-2.08c-1.21-1.39-1.82-3.38-1.82-5.97c0-1.63,0.3-3.06,0.89-4.29
		c0.59-1.23,1.45-2.17,2.56-2.83s2.42-0.98,3.92-0.98c1.53,0,3.06,0.37,4.6,1.11l-1.07,2.71c-0.59-0.28-1.18-0.52-1.77-0.73
		C89.62,118.62,89.04,118.51,88.47,118.51z"/>
	<path d="M108.68,131.67h-3.32v-6.78h-6.22v6.78h-3.33v-15.71h3.33v6.16h6.22v-6.16h3.32V131.67z"/>
</g>
</svg>
