<?xml version="1.0" encoding="utf-8"?>
<!-- Generator: Adobe Illustrator 26.2.1, SVG Export Plug-In . SVG Version: 6.00 Build 0)  -->
<svg version="1.1" id="Layer_1" xmlns="http://www.w3.org/2000/svg" xmlns:xlink="http://www.w3.org/1999/xlink" x="0px" y="0px"
	 viewBox="0 0 146 146" style="enable-background:new 0 0 146 146;" xml:space="preserve">
<style type="text/css">
	.st0{fill:#FFFFFF;stroke:#000000;stroke-width:4;stroke-miterlimit:10;}
	.st1{fill:#FFFFFF;}
</style>
<g>
	<path d="M13.5,131.7l-3.8-12.3H9.6c0.1,2.5,0.2,4.2,0.2,5v7.3h-3V116h4.5l3.7,12h0.1l3.9-12h4.5v15.7h-3.1v-7.4c0-0.3,0-0.8,0-1.2
		c0-0.5,0.1-1.7,0.1-3.7h-0.1l-4.1,12.3L13.5,131.7L13.5,131.7z"/>
	<path d="M27.6,131.7V116h3.3v15.7H27.6z"/>
	<path d="M41.5,118.5c-1.2,0-2.2,0.5-2.9,1.4s-1,2.2-1,3.9c0,3.5,1.3,5.3,3.9,5.3c1.1,0,2.4-0.3,4-0.8v2.8c-1.3,0.5-2.7,0.8-4.3,0.8
		c-2.3,0-4-0.7-5.2-2.1s-1.8-3.4-1.8-6c0-1.6,0.3-3.1,0.9-4.3s1.5-2.2,2.6-2.8s2.4-1,3.9-1c1.5,0,3.1,0.4,4.6,1.1l-1.1,2.7
		c-0.6-0.3-1.2-0.5-1.8-0.7C42.7,118.6,42.1,118.5,41.5,118.5z"/>
	<path d="M52.2,125.6v6h-3.3V116h4.6c2.1,0,3.7,0.4,4.7,1.2c1,0.8,1.5,2,1.5,3.5c0,0.9-0.2,1.8-0.8,2.5s-1.2,1.3-2.2,1.7
		c2.4,3.5,3.9,5.8,4.6,6.8h-3.7l-3.8-6H52.2z M52.2,122.9h1.1c1,0,1.8-0.2,2.3-0.5c0.5-0.3,0.8-0.9,0.8-1.7c0-0.7-0.3-1.3-0.8-1.6
		c-0.5-0.3-1.3-0.5-2.4-0.5h-1L52.2,122.9L52.2,122.9z"/>
	<path d="M77.7,123.8c0,2.6-0.6,4.6-1.9,6s-3.1,2.1-5.5,2.1s-4.2-0.7-5.5-2.1c-1.3-1.4-1.9-3.4-1.9-6c0-2.6,0.7-4.6,1.9-6
		s3.2-2.1,5.6-2.1c2.4,0,4.3,0.7,5.5,2.1C77,119.2,77.7,121.2,77.7,123.8z M66.2,123.8c0,1.8,0.3,3.1,1,4c0.7,0.9,1.7,1.3,3,1.3
		c2.7,0,4-1.8,4-5.3s-1.3-5.3-4-5.3c-1.3,0-2.3,0.4-3,1.3C66.5,120.7,66.2,122,66.2,123.8z"/>
	<path d="M96.2,131.7h-3.8l-2.1-8.2c-0.1-0.3-0.2-0.9-0.4-1.8s-0.3-1.5-0.3-1.8c0,0.4-0.2,1-0.3,1.9s-0.3,1.5-0.4,1.8l-2.1,8.2h-3.8
		l-4-15.7h3.3l2,8.6c0.3,1.6,0.6,2.9,0.8,4.1c0-0.4,0.1-1,0.3-1.9s0.3-1.5,0.4-2l2.3-8.8h3.2l2.3,8.8c0.1,0.4,0.2,1,0.4,1.8
		c0.2,0.8,0.3,1.5,0.3,2.1c0.1-0.6,0.2-1.2,0.3-2.1c0.2-0.8,0.3-1.5,0.4-2l2-8.6h3.3L96.2,131.7z"/>
	<path d="M111.8,131.7l-1.1-3.7h-5.7l-1.1,3.7h-3.6l5.5-15.8h4.1l5.6,15.8H111.8z M109.9,125.1c-1.1-3.4-1.7-5.3-1.8-5.8
		c-0.1-0.4-0.2-0.8-0.3-1.1c-0.2,0.9-0.9,3.2-2,6.8H109.9z"/>
	<path d="M126.3,116h3.4l-5.3,15.7h-3.6l-5.3-15.7h3.4l2.9,9.3c0.2,0.6,0.3,1.2,0.5,1.9s0.3,1.2,0.3,1.5c0.1-0.7,0.3-1.8,0.8-3.5
		L126.3,116z"/>
	<path d="M140.7,131.7h-9V116h9v2.7H135v3.4h5.3v2.7H135v4h5.7L140.7,131.7L140.7,131.7z"/>
</g>
<path class="st0" d="M117.6,93.5H30.4c-3.3,0-5.9-2.7-5.9-5.9V39.3c0-3.3,2.7-5.9,5.9-5.9h87.1c3.3,0,5.9,2.7,5.9,5.9v48.2
	C123.5,90.8,120.8,93.5,117.6,93.5z"/>
<rect x="30" y="39" width="67" height="45"/>
<rect x="104" y="39" width="15" height="11"/>
<rect x="104" y="52" width="5" height="2"/>
<rect x="104" y="56" width="5" height="2"/>
<rect x="113" y="52" width="5" height="2"/>
<rect x="113" y="56" width="5" height="2"/>
<rect x="32" y="42" class="st1" width="62" height="2"/>
</svg>
