<?xml version="1.0" encoding="utf-8"?>
<!-- Generator: Adobe Illustrator 26.2.1, SVG Export Plug-In . SVG Version: 6.00 Build 0)  -->
<svg version="1.1" id="Layer_1" xmlns="http://www.w3.org/2000/svg" xmlns:xlink="http://www.w3.org/1999/xlink" x="0px" y="0px"
	 viewBox="0 0 146 146" style="enable-background:new 0 0 146 146;" xml:space="preserve">
<style type="text/css">
	.st0{fill:#FFFFFF;stroke:#000000;stroke-width:4;stroke-miterlimit:10;}
	.st1{fill:#FFFFFF;}
</style>
<g>
	<path d="M13.5,131.67l-3.78-12.32h-0.1c0.14,2.51,0.2,4.18,0.2,5.02v7.3H6.85v-15.71h4.53l3.72,12.01h0.06l3.94-12.01h4.53v15.71
		h-3.1v-7.43c0-0.35,0-0.75,0.02-1.21c0.01-0.46,0.06-1.68,0.15-3.65h-0.1l-4.05,12.3H13.5z"/>
	<path d="M27.59,131.67v-15.71h3.33v15.71H27.59z"/>
	<path d="M41.54,118.51c-1.25,0-2.22,0.47-2.91,1.41s-1.03,2.25-1.03,3.94c0,3.5,1.31,5.25,3.94,5.25c1.1,0,2.44-0.28,4.01-0.83
		v2.79c-1.29,0.54-2.73,0.81-4.32,0.81c-2.29,0-4.03-0.69-5.24-2.08c-1.21-1.39-1.82-3.38-1.82-5.97c0-1.63,0.3-3.06,0.89-4.29
		c0.59-1.23,1.45-2.17,2.56-2.83s2.42-0.98,3.92-0.98c1.53,0,3.06,0.37,4.6,1.11l-1.07,2.71c-0.59-0.28-1.18-0.52-1.77-0.73
		C42.7,118.62,42.12,118.51,41.54,118.51z"/>
	<path d="M52.22,125.64v6.03h-3.33v-15.71h4.58c2.13,0,3.71,0.39,4.74,1.17c1.02,0.78,1.54,1.96,1.54,3.54
		c0,0.92-0.25,1.75-0.76,2.47c-0.51,0.72-1.23,1.28-2.16,1.69c2.36,3.53,3.9,5.81,4.62,6.84h-3.7l-3.75-6.03H52.22z M52.22,122.94
		h1.07c1.05,0,1.83-0.17,2.33-0.53c0.5-0.35,0.75-0.9,0.75-1.65c0-0.74-0.26-1.27-0.77-1.59c-0.51-0.31-1.3-0.47-2.38-0.47h-1.01
		V122.94z"/>
	<path d="M77.67,123.8c0,2.6-0.64,4.6-1.93,5.99s-3.14,2.09-5.54,2.09s-4.25-0.7-5.54-2.09c-1.29-1.4-1.93-3.4-1.93-6.02
		c0-2.61,0.65-4.61,1.94-5.99c1.29-1.38,3.15-2.07,5.56-2.07c2.41,0,4.26,0.7,5.54,2.08C77.03,119.19,77.67,121.19,77.67,123.8z
		 M66.21,123.8c0,1.75,0.33,3.08,1,3.96c0.67,0.89,1.66,1.33,2.99,1.33c2.66,0,3.99-1.76,3.99-5.3c0-3.54-1.32-5.31-3.96-5.31
		c-1.33,0-2.32,0.45-3,1.34C66.54,120.72,66.21,122.04,66.21,123.8z"/>
	<path d="M96.22,131.67h-3.79l-2.13-8.25c-0.08-0.29-0.21-0.9-0.4-1.82s-0.3-1.54-0.33-1.85c-0.04,0.39-0.15,1.01-0.32,1.86
		s-0.3,1.47-0.4,1.83l-2.12,8.23h-3.78l-4.01-15.71h3.28l2.01,8.57c0.35,1.58,0.6,2.95,0.76,4.11c0.04-0.41,0.14-1.04,0.29-1.9
		s0.3-1.52,0.44-1.99l2.29-8.8h3.15l2.29,8.8c0.1,0.39,0.23,1,0.38,1.8c0.15,0.81,0.26,1.5,0.34,2.08c0.07-0.56,0.19-1.25,0.34-2.09
		c0.16-0.83,0.3-1.51,0.43-2.03l2-8.57h3.28L96.22,131.67z"/>
	<path d="M111.81,131.67l-1.14-3.74h-5.73l-1.14,3.74h-3.59l5.54-15.77h4.07l5.56,15.77H111.81z M109.87,125.14
		c-1.05-3.39-1.65-5.3-1.78-5.75c-0.13-0.44-0.23-0.79-0.28-1.05c-0.24,0.92-0.91,3.18-2.03,6.8H109.87z"/>
	<path d="M126.33,115.96h3.36l-5.34,15.71h-3.63l-5.33-15.71h3.36l2.95,9.35c0.16,0.55,0.33,1.19,0.51,1.93s0.29,1.24,0.33,1.53
		c0.08-0.66,0.35-1.81,0.81-3.46L126.33,115.96z"/>
	<path d="M140.72,131.67h-9.04v-15.71h9.04v2.73H135v3.45h5.32v2.73H135v4.05h5.71V131.67z"/>
</g>
<path class="st0" d="M116.57,97.5H29.43c-3.28,0-5.93-2.66-5.93-5.93V43.33c0-3.28,2.66-5.93,5.93-5.93h87.13
	c3.28,0,5.93,2.66,5.93,5.93v48.23C122.5,94.84,119.84,97.5,116.57,97.5z"/>
<rect x="29" y="43" width="67" height="45"/>
<rect x="103" y="43" width="15" height="11"/>
<rect x="103" y="56" width="5" height="2"/>
<rect x="103" y="60" width="5" height="2"/>
<rect x="112" y="56" width="5" height="2"/>
<rect x="112" y="60" width="5" height="2"/>
<rect x="31" y="46" class="st1" width="62" height="2"/>
</svg>
