<?xml version="1.0" encoding="utf-8"?>
<!-- Generator: Adobe Illustrator 26.2.1, SVG Export Plug-In . SVG Version: 6.00 Build 0)  -->
<svg version="1.1" id="Layer_1" xmlns="http://www.w3.org/2000/svg" xmlns:xlink="http://www.w3.org/1999/xlink" x="0px" y="0px"
	 viewBox="0 0 146 146" style="enable-background:new 0 0 146 146;" xml:space="preserve">
<g>
	<path d="M42.29,77.39c0,4.02-1,7.11-2.99,9.26s-4.85,3.24-8.57,3.24s-6.57-1.08-8.57-3.24s-2.99-5.26-2.99-9.3
		c0-4.04,1-7.12,3-9.25s4.86-3.2,8.59-3.2c3.73,0,6.58,1.07,8.56,3.22C41.3,70.27,42.29,73.36,42.29,77.39z M24.58,77.39
		c0,2.71,0.51,4.75,1.54,6.13c1.03,1.37,2.57,2.06,4.62,2.06c4.11,0,6.16-2.73,6.16-8.18c0-5.47-2.04-8.2-6.13-8.2
		c-2.05,0-3.59,0.69-4.63,2.07C25.1,72.63,24.58,74.68,24.58,77.39z"/>
	<path d="M56.68,89.56h-5.15V69.57h-6.59v-4.28h18.33v4.28h-6.59V89.56z"/>
	<path d="M86.9,89.56h-5.13V79.08h-9.61v10.48h-5.15V65.29h5.15v9.51h9.61v-9.51h5.13V89.56z"/>
	<path d="M107,89.56H93.02V65.29H107v4.22h-8.83v5.33h8.22v4.22h-8.22v6.26H107V89.56z"/>
	<path d="M117.21,80.25v9.31h-5.15V65.29h7.07c3.3,0,5.74,0.6,7.32,1.8c1.58,1.2,2.37,3.02,2.37,5.47c0,1.43-0.39,2.7-1.18,3.81
		c-0.79,1.11-1.9,1.98-3.34,2.61c3.65,5.46,6.03,8.98,7.14,10.58h-5.71l-5.79-9.31H117.21z M117.21,76.06h1.66
		c1.63,0,2.83-0.27,3.6-0.81c0.77-0.54,1.16-1.39,1.16-2.56c0-1.15-0.4-1.97-1.19-2.46c-0.79-0.49-2.02-0.73-3.68-0.73h-1.56V76.06z
		"/>
</g>
</svg>
