<?xml version="1.0" encoding="utf-8"?>
<!-- Generator: Adobe Illustrator 26.2.1, SVG Export Plug-In . SVG Version: 6.00 Build 0)  -->
<svg version="1.1" id="Layer_1" xmlns="http://www.w3.org/2000/svg" xmlns:xlink="http://www.w3.org/1999/xlink" x="0px" y="0px"
	 viewBox="0 0 146 146" style="enable-background:new 0 0 146 146;" xml:space="preserve">
<g>
	<path d="M39.3,77.4c0,4-1,7.1-3,9.3s-4.8,3.2-8.6,3.2s-6.6-1.1-8.6-3.2s-3-5.3-3-9.3s1-7.1,3-9.2s4.9-3.2,8.6-3.2s6.6,1.1,8.6,3.2
		C38.3,70.3,39.3,73.4,39.3,77.4z M21.6,77.4c0,2.7,0.5,4.8,1.5,6.1c1,1.4,2.6,2.1,4.6,2.1c4.1,0,6.2-2.7,6.2-8.2
		c0-5.5-2-8.2-6.1-8.2c-2,0-3.6,0.7-4.6,2.1C22.1,72.6,21.6,74.7,21.6,77.4z"/>
	<path d="M53.7,89.6h-5.2v-20h-6.6v-4.3h18.3v4.3h-6.6C53.7,69.6,53.7,89.6,53.7,89.6z"/>
	<path d="M83.9,89.6h-5.1V79.1h-9.6v10.5H64V65.3h5.2v9.5h9.6v-9.5h5.1V89.6z"/>
	<path d="M104,89.6H90V65.3h14v4.2h-8.8v5.3h8.2v4.2h-8.2v6.3h8.8V89.6z"/>
	<path d="M114.2,80.2v9.3h-5.2V65.3h7.1c3.3,0,5.7,0.6,7.3,1.8c1.6,1.2,2.4,3,2.4,5.5c0,1.4-0.4,2.7-1.2,3.8s-1.9,2-3.3,2.6
		c3.7,5.5,6,9,7.1,10.6h-5.7l-5.8-9.3C116.9,80.3,114.2,80.3,114.2,80.2z M114.2,76.1h1.7c1.6,0,2.8-0.3,3.6-0.8s1.2-1.4,1.2-2.6
		c0-1.2-0.4-2-1.2-2.5s-2-0.7-3.7-0.7h-1.6L114.2,76.1L114.2,76.1z"/>
</g>
</svg>
