<?xml version="1.0" encoding="utf-8"?>
<!-- Generator: Adobe Illustrator 26.2.1, SVG Export Plug-In . SVG Version: 6.00 Build 0)  -->
<svg version="1.1" id="Layer_1" xmlns="http://www.w3.org/2000/svg" xmlns:xlink="http://www.w3.org/1999/xlink" x="0px" y="0px"
	 viewBox="0 0 145 145" style="enable-background:new 0 0 145 145;" xml:space="preserve">
<style type="text/css">
	.st0{fill:#FFFFFF;stroke:#000000;stroke-width:5;stroke-linecap:round;stroke-linejoin:round;stroke-miterlimit:10;}
	.st1{fill:none;stroke:#000000;stroke-width:5;stroke-linecap:round;stroke-linejoin:round;stroke-miterlimit:10;}
</style>
<g>
	<path d="M55.5,130.3c0,2.6-0.64,4.6-1.93,5.99s-3.14,2.09-5.54,2.09s-4.25-0.7-5.54-2.09s-1.93-3.4-1.93-6.02
		c0-2.61,0.65-4.61,1.94-5.99c1.29-1.38,3.15-2.07,5.56-2.07s4.26,0.7,5.54,2.08C54.86,125.69,55.5,127.69,55.5,130.3z M44.03,130.3
		c0,1.75,0.33,3.08,1,3.96c0.67,0.89,1.66,1.33,2.99,1.33c2.66,0,3.99-1.76,3.99-5.3c0-3.54-1.32-5.31-3.96-5.31
		c-1.33,0-2.32,0.45-3,1.34S44.03,128.54,44.03,130.3z"/>
	<path d="M67.71,122.46h3.36l-5.34,15.71H62.1l-5.33-15.71h3.36l2.95,9.35c0.17,0.55,0.33,1.19,0.51,1.93
		c0.17,0.73,0.28,1.24,0.33,1.53c0.08-0.66,0.35-1.81,0.81-3.46L67.71,122.46z"/>
	<path d="M82.09,138.17h-9.04v-15.71h9.04v2.73h-5.71v3.45h5.32v2.73h-5.32v4.05h5.71V138.17z"/>
	<path d="M99.3,138.17h-4.23l-6.83-11.88h-0.1c0.14,2.1,0.2,3.6,0.2,4.49v7.39h-2.98v-15.71h4.2l6.82,11.76h0.08
		c-0.11-2.04-0.16-3.48-0.16-4.33v-7.43h3V138.17z"/>
</g>
<rect x="23.5" y="18.5" class="st0" width="93" height="96"/>
<line class="st1" x1="25.44" y1="42.88" x2="115.5" y2="42.88"/>
<circle cx="37" cy="31" r="5.5"/>
<circle cx="50" cy="31" r="5.5"/>
<circle cx="64" cy="31" r="5.5"/>
<circle cx="77" cy="31" r="5.5"/>
<path d="M76.5,78"/>
<rect x="35.5" y="56.5" width="69" height="43"/>
</svg>
