<?xml version="1.0" encoding="utf-8"?>
<!-- Generator: Adobe Illustrator 26.2.1, SVG Export Plug-In . SVG Version: 6.00 Build 0)  -->
<svg version="1.1" id="Layer_1" xmlns="http://www.w3.org/2000/svg" xmlns:xlink="http://www.w3.org/1999/xlink" x="0px" y="0px"
	 viewBox="0 0 146 146" style="enable-background:new 0 0 146 146;" xml:space="preserve">
<style type="text/css">
	.st0{fill:#FFFFFF;stroke:#000000;stroke-width:5;stroke-linecap:round;stroke-linejoin:round;stroke-miterlimit:10;}
	.st1{fill:none;stroke:#000000;stroke-width:5;stroke-linecap:round;stroke-linejoin:round;stroke-miterlimit:10;}
</style>
<g>
	<path d="M58,130.8c0,2.6-0.6,4.6-1.9,6s-3.1,2.1-5.5,2.1s-4.2-0.7-5.5-2.1s-1.9-3.4-1.9-6c0-2.6,0.7-4.6,1.9-6
		c1.3-1.4,3.2-2.1,5.6-2.1s4.3,0.7,5.5,2.1C57.4,126.2,58,128.2,58,130.8z M46.5,130.8c0,1.8,0.3,3.1,1,4c0.7,0.9,1.7,1.3,3,1.3
		c2.7,0,4-1.8,4-5.3c0-3.5-1.3-5.3-4-5.3c-1.3,0-2.3,0.4-3,1.3S46.5,129,46.5,130.8z"/>
	<path d="M70.2,123h3.4l-5.3,15.7h-3.6L59.3,123h3.4l3,9.3c0.2,0.6,0.3,1.2,0.5,1.9c0.2,0.7,0.3,1.2,0.3,1.5
		c0.1-0.7,0.3-1.8,0.8-3.5L70.2,123z"/>
	<path d="M84.6,138.7h-9V123h9v2.7h-5.7v3.4h5.3v2.7h-5.3v4.1h5.7V138.7z"/>
	<path d="M101.8,138.7h-4.2l-6.8-11.9h-0.1c0.1,2.1,0.2,3.6,0.2,4.5v7.4h-3V123h4.2l6.8,11.8H99c-0.1-2-0.2-3.5-0.2-4.3V123h3
		L101.8,138.7L101.8,138.7z"/>
</g>
<rect x="27" y="19" class="st0" width="93" height="96"/>
<line class="st1" x1="28.9" y1="43.4" x2="119" y2="43.4"/>
<circle cx="40.5" cy="31.5" r="5.5"/>
<circle cx="53.5" cy="31.5" r="5.5"/>
<circle cx="67.5" cy="31.5" r="5.5"/>
<circle cx="80.5" cy="31.5" r="5.5"/>
<path d="M80,78.5"/>
<rect x="39" y="57" width="69" height="43"/>
</svg>
