<?xml version="1.0" encoding="utf-8"?>
<!-- Generator: Adobe Illustrator 26.2.1, SVG Export Plug-In . SVG Version: 6.00 Build 0)  -->
<svg version="1.1" id="Layer_1" xmlns="http://www.w3.org/2000/svg" xmlns:xlink="http://www.w3.org/1999/xlink" x="0px" y="0px"
	 viewBox="0 0 146 146" style="enable-background:new 0 0 146 146;" xml:space="preserve">
<style type="text/css">
	.st0{fill:none;}
	.st1{font-family:'OpenSans-Bold';}
	.st2{font-size:100px;}
</style>
<g>
	<path d="M23.25,117.96v10.16c0,1.16-0.26,2.18-0.78,3.05c-0.52,0.87-1.27,1.54-2.25,2.01c-0.98,0.47-2.14,0.7-3.48,0.7
		c-2.02,0-3.59-0.52-4.71-1.55s-1.68-2.45-1.68-4.25v-10.12h3.32v9.61c0,1.21,0.24,2.1,0.73,2.66c0.49,0.57,1.29,0.85,2.42,0.85
		c1.09,0,1.88-0.28,2.37-0.85c0.49-0.57,0.74-1.46,0.74-2.68v-9.59H23.25z"/>
	<path d="M41.03,133.67H36.8l-6.83-11.88h-0.1c0.14,2.1,0.2,3.6,0.2,4.49v7.39H27.1v-15.71h4.2l6.82,11.76h0.08
		c-0.11-2.04-0.16-3.48-0.16-4.33v-7.43h3V133.67z"/>
	<path d="M57.62,133.67h-3.78l-4.11-6.62l-1.41,1.01v5.61h-3.33v-15.71h3.33v7.19l1.31-1.85l4.25-5.34h3.7l-5.48,6.95L57.62,133.67z
		"/>
	<path d="M73.53,133.67h-4.23l-6.83-11.88h-0.1c0.14,2.1,0.2,3.6,0.2,4.49v7.39h-2.98v-15.71h4.2l6.82,11.76h0.08
		c-0.11-2.04-0.16-3.48-0.16-4.33v-7.43h3V133.67z"/>
	<path d="M91.73,125.8c0,2.6-0.64,4.6-1.93,5.99s-3.14,2.09-5.54,2.09s-4.25-0.7-5.54-2.09s-1.93-3.4-1.93-6.02
		c0-2.61,0.65-4.61,1.94-5.99c1.29-1.38,3.15-2.07,5.56-2.07c2.41,0,4.26,0.7,5.54,2.08C91.1,121.19,91.73,123.19,91.73,125.8z
		 M80.27,125.8c0,1.75,0.33,3.08,1,3.96c0.67,0.89,1.66,1.33,2.99,1.33c2.66,0,3.99-1.76,3.99-5.3c0-3.54-1.32-5.31-3.96-5.31
		c-1.33,0-2.32,0.45-3,1.34C80.61,122.72,80.27,124.04,80.27,125.8z"/>
	<path d="M110.29,133.67h-3.79l-2.13-8.25c-0.08-0.29-0.21-0.9-0.4-1.82c-0.19-0.92-0.3-1.54-0.33-1.85
		c-0.04,0.39-0.15,1.01-0.32,1.86s-0.3,1.47-0.4,1.83l-2.12,8.23h-3.78l-4.01-15.71h3.28l2.01,8.57c0.35,1.58,0.6,2.95,0.76,4.11
		c0.04-0.41,0.14-1.04,0.3-1.9c0.15-0.86,0.3-1.52,0.44-1.99l2.29-8.8h3.15l2.29,8.8c0.1,0.39,0.23,1,0.38,1.8
		c0.15,0.81,0.26,1.5,0.34,2.08c0.07-0.56,0.19-1.25,0.34-2.09c0.16-0.83,0.3-1.51,0.43-2.03l2-8.57h3.28L110.29,133.67z"/>
	<path d="M130.19,133.67h-4.23l-6.83-11.88h-0.1c0.14,2.1,0.2,3.6,0.2,4.49v7.39h-2.98v-15.71h4.2l6.82,11.76h0.08
		c-0.11-2.04-0.16-3.48-0.16-4.33v-7.43h3V133.67z"/>
</g>
<rect x="25.03" y="25.83" class="st0" width="92.78" height="85.27"/>
<text transform="matrix(1 0 0 1 47.5674 101.8271)" class="st1 st2">?</text>
</svg>
