<?xml version="1.0" encoding="utf-8"?>
<!-- Generator: Adobe Illustrator 26.2.1, SVG Export Plug-In . SVG Version: 6.00 Build 0)  -->
<svg version="1.1" id="Layer_1" xmlns="http://www.w3.org/2000/svg" xmlns:xlink="http://www.w3.org/1999/xlink" x="0px" y="0px"
	 viewBox="0 0 146 146" style="enable-background:new 0 0 146 146;" xml:space="preserve">
<style type="text/css">
	.st0{fill:none;}
	.st1{enable-background:new    ;}
</style>
<rect x="8.1" y="92.1" class="st0" width="129.7" height="47.5"/>
<g class="st1">
	<path d="M40.7,104.5c0,1.4-0.5,2.5-1.5,3.4s-2.4,1.2-4.3,1.2c-1.7,0-3.2-0.3-4.4-0.9V105c1.1,0.5,2,0.8,2.7,1
		c0.7,0.2,1.4,0.3,2,0.3c0.7,0,1.3-0.1,1.7-0.4c0.4-0.3,0.6-0.7,0.6-1.2c0-0.3-0.1-0.6-0.3-0.8c-0.2-0.2-0.4-0.5-0.8-0.7
		s-1-0.6-2-1.1c-1-0.5-1.7-0.9-2.2-1.3c-0.5-0.4-0.9-0.9-1.1-1.5c-0.3-0.6-0.4-1.2-0.4-1.9c0-1.4,0.5-2.5,1.4-3.3
		c0.9-0.8,2.2-1.2,3.9-1.2c0.8,0,1.6,0.1,2.3,0.3s1.5,0.5,2.3,0.8l-1.1,2.6c-0.8-0.3-1.5-0.6-2.1-0.7s-1.1-0.2-1.6-0.2
		c-0.6,0-1.1,0.1-1.5,0.4c-0.3,0.3-0.5,0.7-0.5,1.1c0,0.3,0.1,0.5,0.2,0.8c0.1,0.2,0.4,0.4,0.6,0.6c0.3,0.2,1,0.6,2.1,1.1
		c1.5,0.7,2.5,1.4,3,2.1C40.4,102.6,40.7,103.4,40.7,104.5z"/>
	<path d="M54.4,98c0,1.7-0.5,3-1.6,3.9c-1.1,0.9-2.6,1.3-4.5,1.3h-1.4v5.6h-3.3V93.1h5c1.9,0,3.4,0.4,4.3,1.2
		C53.9,95.2,54.4,96.4,54.4,98z M46.8,100.5h1.1c1,0,1.8-0.2,2.3-0.6c0.5-0.4,0.8-1,0.8-1.8c0-0.8-0.2-1.4-0.6-1.7
		c-0.4-0.4-1.1-0.6-2-0.6h-1.5V100.5z"/>
	<path d="M66.4,108.8h-9V93.1h9v2.7h-5.7v3.4H66v2.7h-5.3v4h5.7V108.8z"/>
	<path d="M76.3,95.7c-1.3,0-2.2,0.5-2.9,1.4c-0.7,0.9-1,2.3-1,3.9c0,3.5,1.3,5.3,3.9,5.3c1.1,0,2.4-0.3,4-0.8v2.8
		c-1.3,0.5-2.7,0.8-4.3,0.8c-2.3,0-4-0.7-5.2-2.1c-1.2-1.4-1.8-3.4-1.8-6c0-1.6,0.3-3.1,0.9-4.3c0.6-1.2,1.4-2.2,2.6-2.8
		c1.1-0.7,2.4-1,3.9-1c1.5,0,3.1,0.4,4.6,1.1l-1.1,2.7c-0.6-0.3-1.2-0.5-1.8-0.7S76.9,95.7,76.3,95.7z"/>
	<path d="M83.7,108.8V93.1H87v15.7H83.7z"/>
	<path d="M100.6,108.8l-1.1-3.7h-5.7l-1.1,3.7H89l5.5-15.8h4.1l5.6,15.8H100.6z M98.6,102.3c-1.1-3.4-1.6-5.3-1.8-5.7
		c-0.1-0.4-0.2-0.8-0.3-1.1c-0.2,0.9-0.9,3.2-2,6.8H98.6z"/>
	<path d="M106.1,108.8V93.1h3.3v13h6.4v2.8H106.1z"/>
</g>
<g class="st1">
	<path d="M49.2,135.2h-9v-15.7h9v2.7h-5.7v3.4h5.3v2.7h-5.3v4h5.7V135.2z"/>
	<path d="M61.5,119.5h3.4l-5.3,15.7h-3.6l-5.3-15.7h3.4l3,9.3c0.2,0.6,0.3,1.2,0.5,1.9c0.2,0.7,0.3,1.2,0.3,1.5
		c0.1-0.7,0.3-1.8,0.8-3.5L61.5,119.5z"/>
	<path d="M75.9,135.2h-9v-15.7h9v2.7h-5.7v3.4h5.3v2.7h-5.3v4h5.7V135.2z"/>
	<path d="M93.1,135.2h-4.2L82,123.3h-0.1c0.1,2.1,0.2,3.6,0.2,4.5v7.4h-3v-15.7h4.2l6.8,11.8h0.1c-0.1-2-0.2-3.5-0.2-4.3v-7.4h3
		V135.2z"/>
	<path d="M103.1,135.2h-3.3v-12.9h-4.3v-2.8h11.9v2.8h-4.3V135.2z"/>
</g>
<path d="M76.1,25.2l4.6,14.2c0.5,1.6,2,2.6,3.6,2.6h14.9c3.7,0,5.2,4.7,2.2,6.9l-12.1,8.8c-1.3,1-1.9,2.7-1.4,4.2l4.6,14.2
	c1.1,3.5-2.9,6.4-5.8,4.2l-12.1-8.8c-1.3-1-3.1-1-4.5,0l-12.1,8.8c-3,2.2-7-0.8-5.8-4.2L57,61.9c0.5-1.6,0-3.3-1.4-4.2l-12.1-8.8
	c-3-2.2-1.5-6.9,2.2-6.9h14.9c1.7,0,3.1-1.1,3.6-2.6l4.6-14.2C70,21.7,75,21.7,76.1,25.2z"/>
</svg>
