<?xml version="1.0" encoding="utf-8"?>
<!-- Generator: Adobe Illustrator 26.2.1, SVG Export Plug-In . SVG Version: 6.00 Build 0)  -->
<svg version="1.1" id="Layer_1" xmlns="http://www.w3.org/2000/svg" xmlns:xlink="http://www.w3.org/1999/xlink" x="0px" y="0px"
	 viewBox="0 0 146 146" style="enable-background:new 0 0 146 146;" xml:space="preserve">
<style type="text/css">
	.st0{fill:none;}
	.st1{font-family:'OpenSans-Bold';}
	.st2{font-size:22px;}
</style>
<rect x="8.14" y="92.1" class="st0" width="129.73" height="47.55"/>
<text transform="matrix(1 0 0 1 29.419 108.8199)"><tspan x="0" y="0" class="st1 st2">SPECIAL </tspan><tspan x="8.8" y="26.4" class="st1 st2">EVENT</tspan></text>
<path d="M76.12,25.18l4.61,14.19C81.24,40.94,82.7,42,84.35,42h14.92c3.68,0,5.22,4.71,2.24,6.88l-12.07,8.77
	c-1.33,0.97-1.89,2.69-1.38,4.25l4.61,14.19c1.14,3.5-2.87,6.42-5.85,4.25l-12.07-8.77c-1.33-0.97-3.14-0.97-4.47,0l-12.07,8.77
	c-2.98,2.17-6.99-0.75-5.85-4.25l4.61-14.19c0.51-1.57-0.05-3.28-1.38-4.25L43.5,48.88C40.52,46.71,42.05,42,45.74,42h14.92
	c1.65,0,3.11-1.06,3.62-2.63l4.61-14.19C70.02,21.68,74.98,21.68,76.12,25.18z"/>
</svg>
