<?xml version="1.0" encoding="utf-8"?>
<!-- Generator: Adobe Illustrator 26.2.1, SVG Export Plug-In . SVG Version: 6.00 Build 0)  -->
<svg version="1.1" id="Layer_1" xmlns="http://www.w3.org/2000/svg" xmlns:xlink="http://www.w3.org/1999/xlink" x="0px" y="0px"
	 viewBox="0 0 146 146" style="enable-background:new 0 0 146 146;" xml:space="preserve">
<style type="text/css">
	.st0{stroke:#000000;stroke-width:4;stroke-miterlimit:10;}
	.st1{fill:#FFFFFF;stroke:#000000;stroke-width:4;stroke-miterlimit:10;}
	.st2{fill:#FFFFFF;stroke:#000000;stroke-width:3;stroke-miterlimit:10;}
</style>
<g>
	<path d="M31.91,131.67h-3.33v-12.93h-4.26v-2.77h11.86v2.77h-4.26V131.67z"/>
	<path d="M52.85,123.8c0,2.6-0.64,4.6-1.93,5.99s-3.14,2.09-5.54,2.09s-4.25-0.7-5.54-2.09s-1.93-3.4-1.93-6.02
		c0-2.61,0.65-4.61,1.94-5.99s3.15-2.07,5.56-2.07c2.41,0,4.26,0.7,5.54,2.08C52.21,119.19,52.85,121.19,52.85,123.8z M41.39,123.8
		c0,1.75,0.33,3.08,1,3.96c0.67,0.89,1.66,1.33,2.99,1.33c2.66,0,3.99-1.76,3.99-5.3c0-3.54-1.32-5.31-3.96-5.31
		c-1.33,0-2.32,0.45-3,1.34C41.72,120.72,41.39,122.04,41.39,123.8z"/>
	<path d="M65.72,131.67l-1.14-3.74h-5.73l-1.14,3.74h-3.59l5.54-15.77h4.07l5.56,15.77H65.72z M63.78,125.14
		c-1.05-3.39-1.65-5.3-1.78-5.75c-0.13-0.44-0.23-0.79-0.28-1.05c-0.24,0.92-0.91,3.18-2.03,6.8H63.78z"/>
	<path d="M80.55,127.31c0,1.42-0.51,2.54-1.53,3.35s-2.44,1.22-4.26,1.22c-1.68,0-3.16-0.31-4.45-0.95v-3.09
		c1.06,0.47,1.96,0.81,2.69,1s1.41,0.29,2.01,0.29c0.73,0,1.29-0.14,1.68-0.42s0.59-0.69,0.59-1.25c0-0.31-0.09-0.58-0.26-0.82
		s-0.42-0.47-0.76-0.69c-0.33-0.22-1.01-0.58-2.04-1.06c-0.96-0.45-1.68-0.88-2.16-1.3c-0.48-0.42-0.86-0.9-1.15-1.45
		c-0.29-0.55-0.43-1.2-0.43-1.93c0-1.39,0.47-2.48,1.41-3.28s2.24-1.19,3.91-1.19c0.82,0,1.59,0.1,2.34,0.29s1.52,0.47,2.33,0.82
		l-1.07,2.59c-0.84-0.34-1.53-0.58-2.08-0.72c-0.55-0.14-1.09-0.2-1.62-0.2c-0.63,0-1.11,0.15-1.45,0.44
		c-0.34,0.29-0.5,0.68-0.5,1.15c0,0.29,0.07,0.55,0.2,0.77c0.14,0.22,0.35,0.43,0.65,0.63s1,0.57,2.11,1.1
		c1.47,0.7,2.47,1.41,3.02,2.11C80.28,125.42,80.55,126.29,80.55,127.31z"/>
	<path d="M89.46,131.67h-3.33v-12.93h-4.26v-2.77h11.86v2.77h-4.26V131.67z"/>
	<path d="M105.18,131.67h-9.04v-15.71h9.04v2.73h-5.71v3.45h5.32v2.73h-5.32v4.05h5.71V131.67z"/>
	<path d="M111.79,125.64v6.03h-3.33v-15.71h4.58c2.13,0,3.71,0.39,4.74,1.17c1.02,0.78,1.54,1.96,1.54,3.54
		c0,0.92-0.25,1.75-0.76,2.47c-0.51,0.72-1.23,1.28-2.16,1.69c2.36,3.53,3.9,5.81,4.62,6.84h-3.7l-3.75-6.03H111.79z M111.79,122.94
		h1.07c1.05,0,1.83-0.17,2.33-0.53c0.5-0.35,0.75-0.9,0.75-1.65c0-0.74-0.26-1.27-0.77-1.59c-0.51-0.31-1.3-0.47-2.38-0.47h-1.01
		V122.94z"/>
</g>
<path class="st0" d="M103.56,105.5H40.94c-5.63,0-10.19-4.56-10.19-10.19V70.69c0-5.63,4.56-10.19,10.19-10.19h62.62
	c5.63,0,10.19,4.56,10.19,10.19v24.62C113.75,100.94,109.19,105.5,103.56,105.5z"/>
<path class="st1" d="M102.75,73h-61c-6.08,0-11-4.92-11-11v0c0-6.08,4.92-11,11-11h61c6.08,0,11,4.92,11,11v0
	C113.75,68.08,108.83,73,102.75,73z"/>
<rect x="45" y="57" width="56" height="3"/>
<rect x="40" y="63" width="66" height="3"/>
<path class="st2" d="M88.56,24.54C89.45,25.45,90,26.71,90,28.1v12.78c0,2.83-2.29,5.12-5.12,5.12H62.12C59.29,46,57,43.71,57,40.88
	V28.1c0-1.39,0.55-2.65,1.44-3.56C57.53,23.53,57,22.2,57,20.76c0-1.59,0.64-3.03,1.69-4.07c1.04-1.05,2.48-1.69,4.07-1.69h21.48
	c3.18,0,5.76,2.58,5.76,5.76C90,22.2,89.47,23.53,88.56,24.54z"/>
</svg>
