<?xml version="1.0" encoding="utf-8"?>
<!-- Generator: Adobe Illustrator 26.2.1, SVG Export Plug-In . SVG Version: 6.00 Build 0)  -->
<svg version="1.1" id="Layer_1" xmlns="http://www.w3.org/2000/svg" xmlns:xlink="http://www.w3.org/1999/xlink" x="0px" y="0px"
	 viewBox="0 0 146 146" style="enable-background:new 0 0 146 146;" xml:space="preserve">
<style type="text/css">
	.st0{fill:#FFFFFF;stroke:#000000;stroke-width:5;stroke-linecap:round;stroke-linejoin:round;stroke-miterlimit:10;}
	.st1{fill:none;stroke:#000000;stroke-width:5;stroke-linecap:round;stroke-linejoin:round;stroke-miterlimit:10;}
	.st2{fill:#FCFCFC;}
</style>
<g>
	<path d="M21.3,134.7v-16.1h3.4v13.3h6.5v2.8H21.3z"/>
	<path d="M43.9,134.7l-1.2-3.8h-5.9l-1.2,3.8H32l5.7-16.2h4.2l5.7,16.2H43.9z M42,128c-1.1-3.5-1.7-5.4-1.8-5.9
		c-0.1-0.5-0.2-0.8-0.3-1.1c-0.2,0.9-0.9,3.3-2.1,7H42z"/>
	<path d="M62.8,118.6V129c0,1.2-0.3,2.2-0.8,3.1c-0.5,0.9-1.3,1.6-2.3,2.1c-1,0.5-2.2,0.7-3.6,0.7c-2.1,0-3.7-0.5-4.8-1.6
		c-1.2-1.1-1.7-2.5-1.7-4.4v-10.4h3.4v9.9c0,1.2,0.2,2.2,0.8,2.7c0.5,0.6,1.3,0.9,2.5,0.9c1.1,0,1.9-0.3,2.4-0.9
		c0.5-0.6,0.8-1.5,0.8-2.8v-9.8L62.8,118.6L62.8,118.6z"/>
	<path d="M81,134.7h-4.3l-7-12.2h-0.1c0.1,2.2,0.2,3.7,0.2,4.6v7.6h-3.1v-16.1H71l7,12.1h0.1c-0.1-2.1-0.2-3.6-0.2-4.4v-7.6H81
		L81,134.7L81,134.7z"/>
	<path d="M98.4,126.5c0,2.7-0.8,4.7-2.3,6.1s-3.7,2.1-6.5,2.1H85v-16.1h5.1c2.6,0,4.7,0.7,6.1,2.1C97.7,122,98.4,124,98.4,126.5z
		 M94.8,126.6c0-3.5-1.5-5.2-4.6-5.2h-1.8v10.5h1.5C93.2,131.9,94.8,130.1,94.8,126.6z"/>
	<path d="M105.1,128.5v6.2h-3.4v-16.1h4.7c2.2,0,3.8,0.4,4.9,1.2c1.1,0.8,1.6,2,1.6,3.6c0,0.9-0.3,1.8-0.8,2.5s-1.3,1.3-2.2,1.7
		c2.4,3.6,4,6,4.7,7h-3.8l-3.8-6.2L105.1,128.5L105.1,128.5z M105.1,125.7h1.1c1.1,0,1.9-0.2,2.4-0.5s0.8-0.9,0.8-1.7
		c0-0.8-0.3-1.3-0.8-1.6c-0.5-0.3-1.3-0.5-2.4-0.5h-1L105.1,125.7L105.1,125.7z"/>
	<path d="M121.6,125.2l3.4-6.6h3.7l-5.3,9.8v6.3h-3.4v-6.2l-5.3-9.9h3.7L121.6,125.2z"/>
</g>
<rect x="28.3" y="13.6" class="st0" width="93" height="96"/>
<line class="st1" x1="30.3" y1="38" x2="120.3" y2="38"/>
<circle cx="41.8" cy="26.1" r="5.5"/>
<circle cx="54.8" cy="26.1" r="5.5"/>
<circle cx="74.8" cy="73.1" r="26.5"/>
<path d="M81.3,73.1"/>
<path class="st2" d="M98.3,71.2c0-12.5-11.1-21.6-23.5-21.6s-23.5,9.1-23.5,21.6c0,0,9.5,6.7,23.9,0S98.3,71.2,98.3,71.2z"/>
</svg>
