<?xml version="1.0" encoding="utf-8"?>
<!-- Generator: Adobe Illustrator 26.2.1, SVG Export Plug-In . SVG Version: 6.00 Build 0)  -->
<svg version="1.1" id="Layer_1" xmlns="http://www.w3.org/2000/svg" xmlns:xlink="http://www.w3.org/1999/xlink" x="0px" y="0px"
	 viewBox="0 0 107.34 123.78" style="enable-background:new 0 0 107.34 123.78;" xml:space="preserve">
<style type="text/css">
	.st0{fill:#FFFFFF;stroke:#000000;stroke-width:5;stroke-linecap:round;stroke-linejoin:round;stroke-miterlimit:10;}
	.st1{fill:none;stroke:#000000;stroke-width:5;stroke-linecap:round;stroke-linejoin:round;stroke-miterlimit:10;}
	.st2{fill:#FCFCFC;}
</style>
<g>
	<path d="M0,123.55v-16.1h3.41v13.28h6.53v2.82H0z"/>
	<path d="M22.6,123.55l-1.17-3.83h-5.87l-1.17,3.83h-3.68l5.68-16.17h4.17l5.71,16.17H22.6z M20.62,116.86
		c-1.08-3.47-1.69-5.44-1.82-5.89c-0.14-0.46-0.23-0.82-0.29-1.08c-0.24,0.94-0.94,3.26-2.08,6.97H20.62z"/>
	<path d="M41.42,107.45v10.42c0,1.19-0.27,2.23-0.8,3.13c-0.53,0.9-1.3,1.58-2.31,2.06c-1.01,0.48-2.2,0.72-3.57,0.72
		c-2.07,0-3.68-0.53-4.82-1.59c-1.15-1.06-1.72-2.51-1.72-4.36v-10.38h3.4v9.86c0,1.24,0.25,2.15,0.75,2.73
		c0.5,0.58,1.33,0.87,2.48,0.87c1.12,0,1.93-0.29,2.43-0.88c0.5-0.58,0.75-1.5,0.75-2.75v-9.84H41.42z"/>
	<path d="M59.65,123.55h-4.34l-7.01-12.18h-0.1c0.14,2.15,0.21,3.69,0.21,4.6v7.58h-3.05v-16.1h4.31l6.99,12.06h0.08
		c-0.11-2.09-0.17-3.57-0.17-4.44v-7.62h3.07V123.55z"/>
	<path d="M77.06,115.35c0,2.65-0.75,4.68-2.26,6.09c-1.51,1.41-3.69,2.11-6.54,2.11H63.7v-16.1h5.06c2.63,0,4.67,0.69,6.12,2.08
		C76.34,110.92,77.06,112.86,77.06,115.35z M73.52,115.44c0-3.46-1.53-5.19-4.58-5.19h-1.82v10.49h1.47
		C71.87,120.74,73.52,118.97,73.52,115.44z"/>
	<path d="M83.81,117.38v6.18H80.4v-16.1h4.69c2.19,0,3.81,0.4,4.86,1.2c1.05,0.8,1.58,2.01,1.58,3.63c0,0.95-0.26,1.79-0.78,2.53
		c-0.52,0.74-1.26,1.32-2.21,1.73c2.42,3.62,4,5.96,4.74,7.02h-3.79l-3.84-6.18H83.81z M83.81,114.6h1.1c1.08,0,1.88-0.18,2.39-0.54
		c0.51-0.36,0.77-0.93,0.77-1.7c0-0.76-0.26-1.31-0.79-1.63c-0.52-0.32-1.34-0.48-2.44-0.48h-1.04V114.6z"/>
	<path d="M100.3,114.08l3.36-6.63h3.68l-5.34,9.84v6.27h-3.39v-6.16l-5.34-9.95h3.7L100.3,114.08z"/>
</g>
<rect x="6" y="2.5" class="st0" width="93" height="96"/>
<line class="st1" x1="7.94" y1="26.88" x2="98" y2="26.88"/>
<circle cx="19.5" cy="15" r="5.5"/>
<circle cx="32.5" cy="15" r="5.5"/>
<circle cx="52.5" cy="62" r="26.5"/>
<path d="M59,62"/>
<path class="st2" d="M76,60.1c0-12.45-11.05-21.58-23.5-21.58S29,47.66,29,60.1c0,0,9.53,6.71,23.95,0S76,60.1,76,60.1z"/>
</svg>
