<?xml version="1.0" encoding="utf-8"?>
<!-- Generator: Adobe Illustrator 26.2.1, SVG Export Plug-In . SVG Version: 6.00 Build 0)  -->
<svg version="1.1" id="Layer_1" xmlns="http://www.w3.org/2000/svg" xmlns:xlink="http://www.w3.org/1999/xlink" x="0px" y="0px"
	 viewBox="0 0 146 146" style="enable-background:new 0 0 146 146;" xml:space="preserve">
<style type="text/css">
	.st0{fill:none;}
	.st1{enable-background:new    ;}
	.st2{fill:none;stroke:#000000;stroke-miterlimit:10;}
	.st3{stroke:#000000;stroke-miterlimit:10;}
</style>
<rect x="13.8" y="121.6" class="st0" width="118.3" height="18.6"/>
<g class="st1">
	<path d="M39.3,125.1c-1.3,0-2.2,0.5-2.9,1.4c-0.7,0.9-1,2.3-1,3.9c0,3.5,1.3,5.3,3.9,5.3c1.1,0,2.4-0.3,4-0.8v2.8
		c-1.3,0.5-2.7,0.8-4.3,0.8c-2.3,0-4-0.7-5.2-2.1c-1.2-1.4-1.8-3.4-1.8-6c0-1.6,0.3-3.1,0.9-4.3c0.6-1.2,1.4-2.2,2.6-2.8
		c1.1-0.7,2.4-1,3.9-1c1.5,0,3.1,0.4,4.6,1.1l-1.1,2.7c-0.6-0.3-1.2-0.5-1.8-0.7C40.5,125.3,39.9,125.1,39.3,125.1z"/>
	<path d="M46.7,138.3v-15.7H50v13h6.4v2.8H46.7z"/>
	<path d="M73.3,130.4c0,2.6-0.6,4.6-1.9,6s-3.1,2.1-5.5,2.1s-4.3-0.7-5.5-2.1s-1.9-3.4-1.9-6s0.6-4.6,1.9-6c1.3-1.4,3.1-2.1,5.6-2.1
		c2.4,0,4.3,0.7,5.5,2.1S73.3,127.8,73.3,130.4z M61.9,130.4c0,1.8,0.3,3.1,1,4s1.7,1.3,3,1.3c2.7,0,4-1.8,4-5.3
		c0-3.5-1.3-5.3-4-5.3c-1.3,0-2.3,0.4-3,1.3C62.2,127.4,61.9,128.7,61.9,130.4z"/>
	<path d="M85.9,133.9c0,1.4-0.5,2.5-1.5,3.4s-2.4,1.2-4.3,1.2c-1.7,0-3.2-0.3-4.4-0.9v-3.1c1.1,0.5,2,0.8,2.7,1
		c0.7,0.2,1.4,0.3,2,0.3c0.7,0,1.3-0.1,1.7-0.4c0.4-0.3,0.6-0.7,0.6-1.2c0-0.3-0.1-0.6-0.3-0.8c-0.2-0.2-0.4-0.5-0.8-0.7
		s-1-0.6-2-1.1c-1-0.5-1.7-0.9-2.2-1.3s-0.9-0.9-1.1-1.5s-0.4-1.2-0.4-1.9c0-1.4,0.5-2.5,1.4-3.3c0.9-0.8,2.2-1.2,3.9-1.2
		c0.8,0,1.6,0.1,2.3,0.3s1.5,0.5,2.3,0.8l-1.1,2.6c-0.8-0.3-1.5-0.6-2.1-0.7s-1.1-0.2-1.6-0.2c-0.6,0-1.1,0.1-1.5,0.4
		s-0.5,0.7-0.5,1.1c0,0.3,0.1,0.5,0.2,0.8c0.1,0.2,0.4,0.4,0.7,0.6c0.3,0.2,1,0.6,2.1,1.1c1.5,0.7,2.5,1.4,3,2.1
		C85.6,132.1,85.9,132.9,85.9,133.9z"/>
	<path d="M97.8,138.3h-9v-15.7h9v2.7H92v3.4h5.3v2.7H92v4h5.7V138.3z"/>
	<path d="M114.1,130.3c0,2.6-0.7,4.6-2.2,5.9s-3.6,2.1-6.4,2.1H101v-15.7h4.9c2.6,0,4.6,0.7,6,2S114.1,127.9,114.1,130.3z
		 M110.6,130.4c0-3.4-1.5-5.1-4.5-5.1h-1.8v10.2h1.4C109,135.6,110.6,133.8,110.6,130.4z"/>
</g>
<rect x="13.8" y="99.5" class="st0" width="118.3" height="18.6"/>
<g class="st1">
	<path d="M39.5,116.2h-3.8l-2.1-8.2c-0.1-0.3-0.2-0.9-0.4-1.8c-0.2-0.9-0.3-1.5-0.3-1.9c0,0.4-0.2,1-0.3,1.9
		c-0.2,0.9-0.3,1.5-0.4,1.8l-2.1,8.2h-3.8l-4-15.7h3.3l2,8.6c0.4,1.6,0.6,3,0.8,4.1c0-0.4,0.1-1,0.3-1.9c0.2-0.9,0.3-1.5,0.4-2
		l2.3-8.8h3.1l2.3,8.8c0.1,0.4,0.2,1,0.4,1.8s0.3,1.5,0.3,2.1c0.1-0.6,0.2-1.3,0.3-2.1c0.2-0.8,0.3-1.5,0.4-2l2-8.6h3.3L39.5,116.2z
		"/>
	<path d="M45.5,116.2v-15.7h3.3v15.7H45.5z"/>
	<path d="M66.7,116.2h-4.2l-6.8-11.9h-0.1c0.1,2.1,0.2,3.6,0.2,4.5v7.4h-3v-15.7H57l6.8,11.8h0.1c-0.1-2-0.2-3.5-0.2-4.3v-7.4h3
		V116.2z"/>
	<path d="M83.7,108.2c0,2.6-0.7,4.6-2.2,5.9s-3.6,2.1-6.4,2.1h-4.4v-15.7h4.9c2.6,0,4.6,0.7,6,2S83.7,105.8,83.7,108.2z M80.2,108.3
		c0-3.4-1.5-5.1-4.5-5.1H74v10.2h1.4C78.6,113.4,80.2,111.7,80.2,108.3z"/>
	<path d="M101.2,108.3c0,2.6-0.6,4.6-1.9,6s-3.1,2.1-5.5,2.1s-4.3-0.7-5.5-2.1s-1.9-3.4-1.9-6s0.6-4.6,1.9-6
		c1.3-1.4,3.1-2.1,5.6-2.1c2.4,0,4.3,0.7,5.5,2.1S101.2,105.7,101.2,108.3z M89.7,108.3c0,1.8,0.3,3.1,1,4s1.7,1.3,3,1.3
		c2.7,0,4-1.8,4-5.3c0-3.5-1.3-5.3-4-5.3c-1.3,0-2.3,0.4-3,1.3C90.1,105.2,89.7,106.6,89.7,108.3z"/>
	<path d="M119.8,116.2H116l-2.1-8.2c-0.1-0.3-0.2-0.9-0.4-1.8c-0.2-0.9-0.3-1.5-0.3-1.9c0,0.4-0.2,1-0.3,1.9
		c-0.2,0.9-0.3,1.5-0.4,1.8l-2.1,8.2h-3.8l-4-15.7h3.3l2,8.6c0.4,1.6,0.6,3,0.8,4.1c0-0.4,0.1-1,0.3-1.9c0.2-0.9,0.3-1.5,0.4-2
		l2.3-8.8h3.1l2.3,8.8c0.1,0.4,0.2,1,0.4,1.8s0.3,1.5,0.3,2.1c0.1-0.6,0.2-1.3,0.3-2.1c0.2-0.8,0.3-1.5,0.4-2l2-8.6h3.3L119.8,116.2
		z"/>
</g>
<rect x="35.4" y="24.2" class="st2" width="75.1" height="56.8"/>
<polyline class="st3" points="35.7,24.3 62.8,20.7 62.8,88.1 35.4,80.7 "/>
<polyline class="st3" points="110.6,24.5 82.3,20.7 82.3,87.9 110.8,80.9 "/>
<line class="st2" x1="73" y1="24.2" x2="73" y2="80.9"/>
<line class="st2" x1="35.4" y1="52.6" x2="110.6" y2="52.6"/>
</svg>
