<?xml version="1.0" encoding="utf-8"?>
<!-- Generator: Adobe Illustrator 26.2.1, SVG Export Plug-In . SVG Version: 6.00 Build 0)  -->
<svg version="1.1" id="Layer_1" xmlns="http://www.w3.org/2000/svg" xmlns:xlink="http://www.w3.org/1999/xlink" x="0px" y="0px"
	 viewBox="0 0 146 146" style="enable-background:new 0 0 146 146;" xml:space="preserve">
<style type="text/css">
	.st0{fill:none;stroke:#000000;stroke-miterlimit:10;}
	.st1{stroke:#000000;stroke-miterlimit:10;}
</style>
<g>
	<path d="M58.5,130.4c0,2.6-0.6,4.6-1.9,6s-3.1,2.1-5.5,2.1s-4.3-0.7-5.5-2.1s-1.9-3.4-1.9-6s0.6-4.6,1.9-6c1.3-1.4,3.1-2.1,5.6-2.1
		c2.4,0,4.3,0.7,5.5,2.1S58.5,127.8,58.5,130.4z M47,130.4c0,1.8,0.3,3.1,1,4s1.7,1.3,3,1.3c2.7,0,4-1.8,4-5.3c0-3.5-1.3-5.3-4-5.3
		c-1.3,0-2.3,0.4-3,1.3C47.3,127.4,47,128.7,47,130.4z"/>
	<path d="M72.6,127.5c0,1.7-0.5,3-1.6,3.9c-1.1,0.9-2.6,1.3-4.5,1.3h-1.4v5.6h-3.3v-15.7h5c1.9,0,3.4,0.4,4.3,1.2
		C72.1,124.7,72.6,125.9,72.6,127.5z M65.1,130h1.1c1,0,1.8-0.2,2.3-0.6c0.5-0.4,0.8-1,0.8-1.8c0-0.8-0.2-1.4-0.6-1.7
		c-0.4-0.4-1.1-0.6-2-0.6h-1.5V130z"/>
	<path d="M84.6,138.3h-9v-15.7h9v2.7h-5.7v3.4h5.3v2.7h-5.3v4h5.7V138.3z"/>
	<path d="M101.8,138.3h-4.2l-6.8-11.9h-0.1c0.1,2.1,0.2,3.6,0.2,4.5v7.4h-3v-15.7h4.2l6.8,11.8H99c-0.1-2-0.2-3.5-0.2-4.3v-7.4h3
		V138.3z"/>
</g>
<g>
	<path d="M39.5,116.2h-3.8l-2.1-8.2c-0.1-0.3-0.2-0.9-0.4-1.8c-0.2-0.9-0.3-1.5-0.3-1.9c0,0.4-0.2,1-0.3,1.9
		c-0.2,0.9-0.3,1.5-0.4,1.8l-2.1,8.2h-3.8l-4-15.7h3.3l2,8.6c0.4,1.6,0.6,3,0.8,4.1c0-0.4,0.1-1,0.3-1.9c0.2-0.9,0.3-1.5,0.4-2
		l2.3-8.8h3.1l2.3,8.8c0.1,0.4,0.2,1,0.4,1.8s0.3,1.5,0.3,2.1c0.1-0.6,0.2-1.3,0.3-2.1c0.2-0.8,0.3-1.5,0.4-2l2-8.6h3.3L39.5,116.2z
		"/>
	<path d="M45.5,116.2v-15.7h3.3v15.7H45.5z"/>
	<path d="M66.7,116.2h-4.2l-6.8-11.9h-0.1c0.1,2.1,0.2,3.6,0.2,4.5v7.4h-3v-15.7H57l6.8,11.8h0.1c-0.1-2-0.2-3.5-0.2-4.3v-7.4h3
		V116.2z"/>
	<path d="M83.7,108.2c0,2.6-0.7,4.6-2.2,5.9c-1.5,1.4-3.6,2.1-6.4,2.1h-4.4v-15.7h4.9c2.6,0,4.6,0.7,6,2S83.7,105.8,83.7,108.2z
		 M80.2,108.3c0-3.4-1.5-5.1-4.5-5.1H74v10.2h1.4C78.6,113.4,80.2,111.7,80.2,108.3z"/>
	<path d="M101.2,108.3c0,2.6-0.6,4.6-1.9,6s-3.1,2.1-5.5,2.1s-4.3-0.7-5.5-2.1s-1.9-3.4-1.9-6s0.6-4.6,1.9-6
		c1.3-1.4,3.1-2.1,5.6-2.1s4.3,0.7,5.5,2.1C100.6,103.7,101.2,105.7,101.2,108.3z M89.7,108.3c0,1.8,0.3,3.1,1,4s1.7,1.3,3,1.3
		c2.7,0,4-1.8,4-5.3c0-3.5-1.3-5.3-4-5.3c-1.3,0-2.3,0.4-3,1.3C90.1,105.2,89.7,106.6,89.7,108.3z"/>
	<path d="M119.8,116.2H116l-2.1-8.2c-0.1-0.3-0.2-0.9-0.4-1.8c-0.2-0.9-0.3-1.5-0.3-1.9c0,0.4-0.2,1-0.3,1.9
		c-0.2,0.9-0.3,1.5-0.4,1.8l-2.1,8.2h-3.8l-4-15.7h3.3l2,8.6c0.4,1.6,0.6,3,0.8,4.1c0-0.4,0.1-1,0.3-1.9c0.2-0.9,0.3-1.5,0.4-2
		l2.3-8.8h3.1l2.3,8.8c0.1,0.4,0.2,1,0.4,1.8s0.3,1.5,0.3,2.1c0.1-0.6,0.2-1.3,0.3-2.1c0.2-0.8,0.3-1.5,0.4-2l2-8.6h3.3L119.8,116.2
		z"/>
</g>
<rect x="35.4" y="24.2" class="st0" width="75.1" height="56.8"/>
<polyline class="st1" points="35.7,24.3 23.2,16.9 23.2,84.3 35.4,80.7 "/>
<polyline class="st1" points="110.6,24.5 123,17.1 123,84.3 110.8,80.9 "/>
<line class="st0" x1="73" y1="24.2" x2="73" y2="80.9"/>
<line class="st0" x1="35.4" y1="52.6" x2="110.6" y2="52.6"/>
</svg>
